<?xml version="1.0" standalone="no"?>
<!DOCTYPE svg PUBLIC "-//W3C//DTD SVG 20010904//EN"
 "http://www.w3.org/TR/2001/REC-SVG-20010904/DTD/svg10.dtd">
<svg version="1.0" xmlns="http://www.w3.org/2000/svg"
 width="1024.000000pt" height="1024.000000pt" viewBox="0 0 1024.000000 1024.000000"
 preserveAspectRatio="xMidYMid meet">

<g transform="translate(0.000000,1024.000000) scale(0.100000,-0.100000)"
fill="#000000" stroke="none">
<path d="M0 5120 l0 -5120 5120 0 5120 0 0 5120 0 5120 -5120 0 -5120 0 0
-5120z m5565 4165 c317 -36 582 -97 895 -204 192 -66 471 -192 636 -289 27
-15 71 -38 98 -51 27 -12 77 -40 111 -62 34 -21 67 -39 73 -39 6 0 12 -4 14
-8 2 -5 39 -32 83 -61 44 -30 109 -78 145 -107 36 -30 121 -98 190 -153 125
-99 292 -256 386 -361 169 -191 149 -187 -54 11 -157 153 -419 374 -442 374
-6 0 -15 7 -20 15 -6 10 -10 11 -10 3 0 -7 9 -18 20 -25 11 -7 20 -19 20 -27
0 -11 -3 -11 -15 -1 -8 7 -15 9 -15 4 0 -5 -6 -2 -13 6 -17 22 -99 84 -111 86
-27 3 -33 5 -58 27 -76 64 -124 97 -293 200 -475 289 -837 434 -1334 531 -601
118 -1046 107 -1760 -43 -52 -11 -99 -17 -104 -14 -6 3 -7 1 -3 -5 4 -7 5 -12
2 -12 -2 0 -12 -3 -22 -7 -12 -4 -15 -3 -10 5 4 7 1 12 -8 12 -8 0 -18 -4 -21
-10 -9 -14 -26 -12 -22 2 2 14 -29 15 -83 3 -19 -4 -32 -4 -29 -1 9 9 227 83
269 91 19 3 96 21 170 40 146 36 271 57 475 80 163 18 649 13 840 -10z m15
-114 c218 -26 388 -60 594 -116 216 -60 390 -123 651 -238 137 -60 375 -199
525 -306 47 -34 117 -82 155 -108 71 -47 171 -133 155 -133 -4 0 -32 19 -62
43 -169 136 -99 60 92 -99 273 -229 650 -653 802 -904 25 -41 62 -100 82 -130
57 -86 199 -373 249 -500 159 -409 234 -696 283 -1085 26 -200 26 -740 1 -945
-60 -492 -163 -859 -348 -1251 -207 -436 -445 -779 -770 -1110 -168 -171 -248
-241 -424 -373 -196 -147 -239 -175 -435 -288 -494 -285 -987 -447 -1566 -514
-209 -25 -672 -25 -879 -1 -722 84 -1392 346 -1982 775 -203 147 -494 422
-667 632 -264 318 -437 600 -609 990 -320 729 -409 1564 -252 2380 34 177 124
500 175 630 99 250 214 490 312 648 113 184 211 330 245 368 30 34 192 224
246 288 90 108 375 381 399 381 4 0 21 16 38 35 17 19 36 35 42 35 6 0 13 7
15 15 4 13 3 13 -7 0 -10 -13 -11 -13 -7 0 2 8 10 14 17 12 17 -4 41 18 33 31
-3 5 -1 7 4 4 6 -4 17 1 24 10 12 14 12 16 -1 9 -8 -4 -4 2 10 13 14 11 32 19
40 18 8 -1 14 3 13 10 -3 14 64 69 92 75 11 2 19 9 18 15 -1 7 6 9 19 5 17 -4
20 -2 15 12 -4 9 -3 15 2 12 4 -3 16 3 26 14 10 11 22 17 26 14 5 -3 9 -1 9 3
0 5 14 14 31 20 20 8 28 16 23 24 -4 7 -3 9 3 6 6 -4 16 0 23 9 18 20 76 61
66 46 -10 -16 -1 -15 16 1 44 43 287 174 441 238 411 171 708 248 1122 288 61
6 126 13 145 15 100 11 565 -3 730 -23z m2136 -916 c4 -8 11 -15 17 -15 6 0
35 -25 64 -57 81 -86 66 -82 -26 7 -14 14 -25 28 -23 32 1 4 -4 5 -11 2 -7 -2
-24 7 -37 21 -20 21 -21 25 -6 25 9 0 19 -7 22 -15z m209 -205 c21 -22 37 -40
34 -40 -3 0 -23 18 -44 40 -21 22 -37 40 -34 40 3 0 23 -18 44 -40z m446 -307
c13 -16 12 -17 -3 -4 -10 7 -18 15 -18 17 0 8 8 3 21 -13z m110 -135 c15 -28
5 -21 -21 15 -15 20 -17 27 -6 18 9 -8 22 -23 27 -33z m33 -44 c3 -8 2 -12 -4
-9 -6 3 -10 10 -10 16 0 14 7 11 14 -7z m-6736 -142 c2 -7 -3 -12 -12 -12 -9
0 -16 7 -16 16 0 17 22 14 28 -4z m6787 8 c-3 -5 -14 -10 -23 -9 -14 0 -13 2
3 9 27 11 27 11 20 0z m-65 -26 c0 -8 -6 -11 -15 -8 -8 4 -15 12 -15 20 0 8 6
11 15 8 8 -4 15 -12 15 -20z m-7438 -2299 c0 -5 -5 -11 -11 -13 -6 -2 -11 4
-11 13 0 9 5 15 11 13 6 -2 11 -8 11 -13z m8138 -6 c0 -12 -37 -12 -44 0 -7
11 14 20 32 13 6 -2 12 -8 12 -13z m-6000 -3634 c0 -3 -18 4 -40 15 -22 11
-40 23 -40 25 0 3 18 -4 40 -15 22 -11 40 -23 40 -25z m116 -52 c30 -14 52
-28 50 -30 -2 -3 -30 9 -62 26 -73 37 -63 41 12 4z m179 -85 c5 -5 -5 -3 -23
3 -18 6 -35 15 -38 20 -6 10 45 -10 61 -23z m3255 3 c-19 -10 -46 -21 -60 -25
-14 -3 -2 5 25 18 58 28 87 34 35 7z m-180 -73 c-56 -25 -212 -79 -217 -75 -4
4 237 95 252 95 6 1 -10 -9 -35 -20z"/>
<path d="M4030 9110 c-9 -6 -10 -10 -3 -10 6 0 15 5 18 10 8 12 4 12 -15 0z"/>
<path d="M7645 8370 c3 -5 8 -10 11 -10 2 0 4 5 4 10 0 6 -5 10 -11 10 -5 0
-7 -4 -4 -10z"/>
<path d="M4760 9045 c-371 -39 -771 -132 -989 -232 -31 -14 -65 -27 -76 -28
-40 -3 -336 -145 -500 -239 -632 -362 -1226 -969 -1552 -1586 -109 -207 -168
-342 -236 -540 -165 -485 -226 -894 -214 -1430 7 -332 42 -591 122 -895 90
-348 252 -731 433 -1025 36 -58 74 -121 86 -140 68 -115 267 -367 420 -530 69
-74 131 -139 138 -145 19 -15 182 -159 188 -166 37 -44 437 -322 575 -399 63
-35 282 -144 362 -181 375 -171 920 -306 1316 -325 75 -4 138 -11 138 -16 1
-4 2 -14 3 -20 0 -7 11 -14 23 -16 16 -2 22 3 25 20 l3 23 245 6 c269 7 399
22 649 74 343 72 625 171 991 347 222 107 566 334 770 508 180 153 429 417
570 605 162 217 352 537 453 765 172 388 262 720 319 1180 18 143 18 789 0
925 -89 690 -329 1304 -721 1845 -168 232 -498 570 -759 778 -224 178 -585
397 -850 514 -144 64 -155 67 -168 51 -12 -17 -13 -17 -14 4 0 25 -27 36 -235
101 -246 77 -454 122 -729 158 -171 22 -613 27 -786 9z m214 -90 c4 -13 -9
-15 -86 -15 -109 0 -109 11 0 21 42 3 78 7 78 7 1 1 4 -5 8 -13z m254 -2 c3
-10 -21 -13 -97 -13 -81 0 -101 3 -101 14 0 20 191 18 198 -1z m232 -13 c0
-15 -7 -20 -25 -20 -14 0 -25 5 -25 11 0 6 -22 10 -57 9 -74 -2 -75 -2 -68 10
3 6 44 10 91 10 77 0 84 -2 84 -20z m55 0 c3 -5 12 -10 18 -10 7 0 6 4 -3 11
-12 9 -11 9 5 4 11 -4 31 -9 45 -10 63 -6 100 -18 100 -32 0 -11 -6 -14 -22
-9 -13 3 -56 12 -95 18 -48 8 -73 16 -73 25 0 15 16 17 25 3z m277 -46 c40 -9
87 -16 105 -15 24 0 31 -3 26 -14 -6 -18 5 -19 -99 6 -48 11 -95 21 -106 22
-18 1 -26 17 -9 17 5 0 43 -7 83 -16z m-1347 -14 c-27 -12 -35 -12 -35 0 0 6
12 10 28 9 24 0 25 -1 7 -9z m1535 -19 c0 -5 9 -7 20 -4 12 3 20 0 20 -7 0 -8
11 -11 30 -8 20 3 30 0 30 -9 0 -17 -16 -16 -73 3 -42 14 -63 34 -37 34 6 0
10 -4 10 -9z m-1865 -31 c-3 -5 -12 -10 -18 -10 -7 0 -6 4 3 10 19 12 23 12
15 0z m962 -4 c-20 -52 -28 -108 -23 -154 6 -51 5 -53 -16 -50 -22 3 -23 7
-25 97 0 52 1 100 4 108 3 7 19 13 35 13 22 0 29 -4 25 -14z m151 -76 c4 -112
-2 -132 -34 -128 -24 3 -25 6 -28 93 -2 50 -6 97 -10 105 -5 12 2 15 31 15
l38 0 3 -85z m-253 -21 c4 -55 5 -103 2 -105 -3 -3 -33 -7 -68 -9 -105 -7
-193 -16 -209 -20 -11 -3 -15 3 -16 23 -1 15 -5 45 -8 67 -7 40 -7 40 9 15
l16 -25 -5 26 c-4 21 -1 27 22 36 22 9 24 11 7 12 -13 1 -25 12 -32 32 -12 30
-12 30 20 27 24 -2 32 -8 32 -22 0 -11 6 -21 13 -23 14 -5 16 23 2 32 -5 3
-10 10 -10 15 0 8 42 13 171 18 l46 2 8 -101z m535 80 c30 -5 74 -9 98 -9 42
0 43 -1 38 -27 -3 -16 -10 -61 -16 -100 -7 -40 -16 -76 -21 -79 -6 -3 -86 2
-179 12 l-168 17 5 81 c7 139 0 129 101 121 48 -4 112 -11 142 -16z m704 5
c82 -23 87 -30 20 -30 -30 0 -47 3 -38 6 16 6 16 7 1 13 -9 3 -19 2 -22 -3 -8
-13 -35 -1 -35 16 0 18 1 17 74 -2z m-1084 -50 c13 -39 7 -151 -9 -167 -21
-21 -31 7 -31 88 0 118 17 151 40 79z m739 -10 c9 -3 12 -15 8 -37 -6 -43 -27
-149 -32 -163 -2 -9 -27 -7 -87 5 -47 10 -89 21 -95 24 -7 5 -4 36 8 98 10 50
21 94 23 98 4 6 132 -12 175 -25z m-1426 7 c-2 -6 6 -11 16 -11 11 0 23 -4 26
-10 9 -15 25 -12 25 4 0 13 20 26 41 26 5 0 9 -7 9 -15 0 -8 4 -15 9 -15 11 0
43 -89 36 -101 -3 -4 -1 -10 5 -14 28 -17 6 -34 -67 -50 -115 -24 -108 -26
-108 22 0 23 2 39 4 37 2 -2 11 2 19 8 14 12 61 23 49 12 -9 -9 11 -44 25 -44
8 0 5 7 -5 17 -14 15 -15 19 -2 33 10 11 11 20 4 30 -8 13 -11 13 -19 -2 -6
-10 -18 -14 -30 -11 -20 5 -28 23 -10 23 6 0 10 4 10 9 0 4 -18 7 -40 6 -33
-2 -40 1 -38 14 1 9 -1 22 -6 30 -6 9 -5 12 2 7 6 -3 14 -2 17 4 9 14 31 6 28
-9z m177 -6 c10 -13 9 -15 -8 -15 -22 0 -36 13 -25 24 10 10 20 7 33 -9z
m1768 -13 c21 -16 21 -18 3 -18 -10 0 -24 8 -30 18 -14 23 -3 23 27 0z m-2518
-2 c0 -5 -2 -10 -4 -10 -3 0 -8 5 -11 10 -3 6 -1 10 4 10 6 0 11 -4 11 -10z
m474 -7 c31 -105 45 -168 36 -171 -6 -2 -8 -7 -5 -12 2 -4 -15 -6 -38 -4 -28
2 -37 1 -28 -6 12 -7 8 -10 -15 -15 -16 -3 -46 -11 -67 -17 -20 -6 -40 -8 -44
-5 -3 4 4 7 17 7 27 0 17 15 -15 23 -18 4 -18 5 3 6 39 2 23 21 -18 21 -22 0
-40 -4 -40 -10 0 -15 -26 -12 -40 5 -11 13 -8 15 14 15 17 0 25 4 20 11 -3 6
-15 9 -25 6 -23 -6 -25 6 -4 23 10 9 15 9 15 1 0 -6 9 -11 20 -11 24 0 26 15
5 28 -13 7 -11 10 11 21 23 10 26 10 20 -5 -7 -18 18 -64 34 -64 6 0 8 11 4
25 -5 21 -3 25 15 25 12 0 21 6 21 15 0 8 -7 15 -16 15 -8 0 -12 -4 -9 -10 3
-5 3 -10 -2 -10 -10 0 -35 52 -28 58 2 3 7 -3 11 -12 10 -25 25 -19 18 8 -7
28 17 40 74 38 19 -1 30 3 27 8 -3 6 1 10 9 10 8 0 17 -8 20 -17z m1620 -4
c-6 -11 -24 -2 -24 11 0 5 7 7 15 4 8 -4 12 -10 9 -15z m-15 -19 c9 0 21 4 27
9 14 14 74 1 74 -16 0 -10 6 -12 20 -8 25 8 121 -11 146 -29 17 -13 16 -17
-13 -92 -16 -44 -33 -87 -37 -98 -3 -10 -12 -16 -19 -14 -6 3 -69 20 -139 38
-87 23 -128 38 -128 47 0 16 29 151 37 173 4 11 7 12 10 3 3 -7 12 -13 22 -13z
m-2169 1 c0 -5 -9 -11 -20 -14 -20 -5 -26 3 -13 16 9 10 33 8 33 -2z m2703 -7
c-2 -7 -13 -9 -24 -7 -32 9 -32 22 -1 20 17 -1 28 -7 25 -13z m-2033 -14 c0
-13 -7 -20 -20 -20 -19 0 -27 20 -13 33 13 14 33 6 33 -13z m-350 -45 c0 -12
-19 -12 -23 0 -4 9 -1 12 9 8 7 -3 14 -7 14 -8z m-37 -18 c-5 -8 -8 -7 -11 1
-2 7 -9 9 -14 6 -7 -4 -8 -2 -4 4 4 6 13 9 21 6 8 -4 12 -11 8 -17z m2266 4
c52 -5 81 -18 81 -38 0 -15 2 -16 10 -3 17 27 11 3 -17 -62 -15 -35 -31 -64
-35 -66 -4 -2 -8 -10 -8 -17 0 -7 -6 -16 -12 -19 -10 -5 -10 -7 0 -12 6 -3 10
-10 7 -15 -4 -5 -13 -5 -23 1 -9 5 -41 16 -69 25 -29 9 -53 21 -53 26 0 11 26
79 51 136 10 24 19 48 19 55 0 8 3 9 8 3 4 -6 22 -12 41 -14z m361 -21 c8 -5
11 -10 5 -10 -5 0 -17 5 -25 10 -8 5 -10 10 -5 10 6 0 17 -5 25 -10z m-2628
-32 c-7 -7 -12 -8 -12 -2 0 14 12 26 19 19 2 -3 -1 -11 -7 -17z m1000 -30 c-3
-29 -9 -56 -14 -59 -5 -3 -73 -9 -151 -12 -580 -25 -1235 -270 -1771 -664 -65
-48 -76 -52 -69 -24 3 12 11 17 19 14 10 -4 12 0 8 11 -3 9 -1 16 6 16 6 0 8
5 5 10 -3 6 -2 10 4 10 6 0 15 10 21 23 10 20 10 20 -3 5 -8 -10 -17 -15 -20
-11 -4 3 5 16 18 29 14 13 25 28 25 35 0 6 7 8 16 5 8 -3 12 -2 9 4 -15 23
273 201 520 321 99 48 243 110 319 139 289 108 716 193 992 199 l71 1 -5 -52z
m373 37 c423 -49 803 -159 1150 -333 294 -147 662 -406 855 -602 47 -47 93
-89 103 -93 30 -11 19 -39 -40 -96 -32 -31 -119 -115 -194 -187 l-136 -132 38
-37 c22 -21 39 -43 39 -50 0 -7 14 -27 32 -44 17 -17 28 -31 22 -31 -5 0 -2
-5 6 -10 8 -5 15 -13 15 -17 0 -4 6 -23 14 -40 9 -22 20 -33 34 -33 20 0 20 0
1 -15 -17 -12 -20 -12 -31 3 -7 9 -16 22 -21 27 -4 6 -11 18 -15 28 -3 9 -11
17 -16 17 -6 0 -8 7 -5 15 4 9 0 15 -10 15 -9 0 -16 7 -16 16 0 23 -86 117
-148 161 -29 21 -51 45 -50 53 1 8 -2 22 -7 30 -5 8 4 4 20 -8 80 -61 68 -62
143 9 85 80 151 152 152 162 0 5 5 5 10 2 6 -3 10 -2 10 3 0 5 18 28 40 51 22
23 40 46 40 51 0 5 -70 69 -156 142 -594 506 -1239 779 -1989 841 l-150 12 -3
53 -3 52 68 0 c37 0 127 -7 198 -15z m1300 5 c3 -5 2 -10 -4 -10 -5 0 -13 5
-16 10 -3 6 -2 10 4 10 5 0 13 -4 16 -10z m-181 -56 c3 -8 10 -14 16 -14 6 0
8 5 5 10 -10 16 7 12 40 -10 18 -12 24 -20 15 -21 -8 0 -4 -5 9 -10 13 -5 32
-7 42 -4 14 5 17 2 13 -8 -3 -8 0 -18 6 -22 8 -5 7 -11 -2 -23 -10 -12 -10
-16 0 -19 19 -7 14 -23 -8 -23 -22 0 -26 -20 -8 -38 18 -18 30 -14 23 7 -6 21
20 37 31 19 4 -7 2 -14 -4 -16 -7 -2 -12 -12 -12 -21 0 -13 -7 -18 -27 -17
-23 1 -30 8 -40 36 l-12 35 0 -33 -1 -32 -39 24 c-21 14 -40 24 -43 23 -2 -1
2 3 8 8 19 17 12 44 -15 54 -35 14 -73 17 -88 8 -8 -5 -13 -3 -13 5 0 9 -3 9
-10 -2 -15 -23 -12 -5 6 40 9 22 20 37 25 34 5 -3 6 2 3 10 -4 12 3 15 35 14
24 0 42 -6 45 -14z m-2564 -4 c0 -5 -5 -10 -11 -10 -5 0 -7 5 -4 10 3 6 8 10
11 10 2 0 4 -4 4 -10z m-79 -37 c-8 -15 -10 -15 -11 -2 0 17 10 32 18 25 2 -3
-1 -13 -7 -23z m-31 -38 c0 -5 -5 -3 -10 5 -5 8 -10 20 -10 25 0 6 5 3 10 -5
5 -8 10 -19 10 -25z m230 21 c0 -2 -7 -6 -15 -10 -8 -3 -15 -1 -15 4 0 6 7 10
15 10 8 0 15 -2 15 -4z m1072 -50 c10 -6 28 -30 39 -53 17 -36 19 -48 9 -82
-7 -25 -22 -49 -40 -63 l-29 -21 2 -406 2 -406 -52 3 -53 4 0 405 0 405 -31
36 c-28 31 -31 40 -27 84 6 53 27 83 73 104 31 14 76 10 107 -10z m1356 4 c13
0 22 -6 22 -15 0 -8 -2 -15 -4 -15 -2 0 -13 -3 -23 -6 -16 -6 -16 -5 2 9 19
16 18 16 -22 17 -25 0 -43 5 -43 11 0 7 9 9 23 5 12 -3 32 -6 45 -6z m212 -11
c0 -4 -7 -6 -15 -3 -8 4 -15 10 -15 15 0 4 7 6 15 3 8 -4 15 -10 15 -15z m354
-14 c9 -25 -9 -24 -20 0 -9 18 -9 22 2 18 7 -2 15 -11 18 -18z m-275 -1 c4 3
12 1 19 -3 8 -5 -1 -21 -28 -51 l-39 -43 4 47 c3 41 2 46 -11 35 -19 -16 -30
-4 -13 14 10 10 21 12 37 6 13 -5 27 -7 31 -5z m61 -44 c-6 -11 -13 -20 -15
-20 -3 0 -5 9 -5 20 0 11 7 20 15 20 13 0 14 -4 5 -20z m-359 -17 c-12 -20
-14 -14 -5 12 4 9 9 14 11 11 3 -2 0 -13 -6 -23z m237 -13 c-1 -34 -14 -48
-30 -32 -7 7 -4 18 7 36 22 33 24 33 23 -4z m-1335 3 c-7 -2 -21 -2 -30 0 -10
3 -4 5 12 5 17 0 24 -2 18 -5z m-680 -10 c-7 -2 -19 -2 -25 0 -7 3 -2 5 12 5
14 0 19 -2 13 -5z m824 -9 c-3 -3 -12 -4 -19 -1 -8 3 -5 6 6 6 11 1 17 -2 13
-5z m125 -20 c124 -23 131 -25 126 -29 -5 -5 -230 33 -237 41 -8 8 28 4 111
-12z m988 -3 c-8 -16 -6 -20 8 -24 10 -3 6 -5 -10 -6 -32 -1 -36 15 -10 35 23
18 24 17 12 -5z m367 -12 c-14 -23 -32 -25 -23 -3 3 9 6 20 6 25 0 4 7 6 15 3
11 -5 12 -10 2 -25z m-140 15 c-3 -3 -12 -4 -19 -1 -8 3 -5 6 6 6 11 1 17 -2
13 -5z m88 -14 c3 -5 1 -10 -4 -10 -6 0 -11 5 -11 10 0 6 2 10 4 10 3 0 8 -4
11 -10z m-255 -33 c0 -5 -4 -5 -10 -2 -5 3 -10 14 -10 23 0 15 2 15 10 2 5 -8
10 -19 10 -23z m-755 -23 c158 -48 215 -67 210 -72 -2 -2 -32 5 -67 17 -35 12
-117 37 -183 57 -66 19 -102 32 -80 28 22 -3 76 -17 120 -30z m1169 3 c16 -12
17 -14 1 -27 -14 -11 -18 -11 -32 2 -8 9 -12 21 -9 27 9 14 18 14 40 -2z
m-1773 -139 c5 -9 9 -39 9 -67 l0 -50 37 2 c32 2 38 -1 41 -19 4 -26 -45 -53
-54 -29 -11 27 -24 4 -24 -42 l0 -46 40 6 c22 3 38 2 35 -2 -2 -4 17 -7 43 -7
26 1 49 -2 52 -5 3 -4 24 -10 48 -14 38 -6 42 -5 42 14 0 12 6 21 15 21 18 0
20 -40 3 -41 -12 -1 79 -28 95 -29 4 0 7 9 7 21 0 11 4 29 10 39 7 13 6 19 -5
24 -22 8 -18 33 6 50 19 13 25 13 50 0 16 -8 29 -17 29 -20 0 -3 -16 -26 -35
-51 -19 -25 -35 -52 -35 -59 0 -7 23 -20 52 -29 61 -18 71 -19 63 -5 -9 15 5
92 20 114 10 13 21 17 39 12 15 -3 26 -11 26 -16 0 -5 -16 -35 -35 -67 -25
-41 -31 -59 -22 -64 6 -4 59 -25 117 -47 58 -22 164 -69 235 -103 72 -35 133
-65 138 -67 4 -2 4 3 1 12 -4 11 22 75 52 124 1 2 14 -4 28 -13 l25 -17 -44
-56 c-50 -66 -54 -57 58 -124 65 -38 224 -155 294 -216 25 -22 30 -31 21 -40
-9 -9 -8 -12 5 -12 9 0 17 -5 17 -11 0 -7 10 -9 25 -7 16 3 24 1 23 -6 -4 -17
24 -96 34 -96 4 0 9 -24 9 -52 1 -29 3 -45 6 -35 4 15 20 2 79 -60 99 -103
214 -256 214 -283 0 -11 4 -18 10 -15 11 7 2 -23 -13 -43 -7 -9 -6 -11 7 -6
14 5 13 1 -5 -30 -11 -20 -25 -39 -30 -42 -6 -3 -5 -12 3 -21 10 -13 8 -14
-12 -11 -16 2 -24 -2 -22 -9 1 -7 -5 -13 -13 -13 -23 0 -19 -16 36 -125 23
-47 12 -34 -69 81 -55 78 -133 175 -116 144 4 -8 41 -64 81 -124 69 -102 104
-158 90 -145 -4 3 -50 70 -103 150 -101 151 -122 179 -135 179 -5 0 -10 -596
-11 -1325 -3 -1265 -4 -1325 -21 -1337 -12 -9 -44 -13 -90 -12 -40 0 -138 2
-218 3 -128 3 -196 13 -164 27 7 3 8 156 5 446 -3 244 -7 444 -8 446 -1 1
-154 1 -339 0 l-338 -3 -5 -737 c-5 -731 -5 -738 -26 -758 -19 -20 -35 -22
-220 -27 -197 -6 -199 -5 -219 17 -20 22 -20 36 -19 1844 0 1001 1 1838 3
1859 2 20 7 40 13 43 12 8 -16 52 -55 87 l-31 27 287 0 288 0 -18 -24 c-10
-13 -30 -31 -45 -39 -16 -9 -28 -21 -28 -28 0 -8 6 -7 18 4 16 14 17 13 20
-21 1 -20 8 -39 15 -44 9 -6 13 -165 15 -705 1 -384 5 -713 8 -731 l5 -34 52
7 c29 3 90 7 137 9 l85 3 -85 -7 c-58 -4 1 -7 183 -8 171 -1 275 2 288 8 19
11 19 27 19 737 -1 399 2 728 5 731 12 13 2 29 -33 52 -20 14 -39 28 -42 31
-3 3 -23 14 -45 24 -22 10 -114 53 -205 96 -278 131 -575 219 -789 234 -109 8
-120 11 -97 28 16 11 17 28 14 125 -4 132 -25 120 174 92 448 -63 846 -230
1254 -525 12 -9 36 -20 55 -25 28 -7 31 -7 15 3 -10 7 -51 35 -90 63 -245 177
-592 346 -891 433 -125 36 -310 68 -497 84 -37 3 -38 2 -47 -38 -5 -23 -9 -31
-10 -17 -1 25 -23 29 -44 7 -22 -21 -27 -9 -27 70 l0 72 74 -5 74 -5 -2 92 -2
91 -50 53 c-78 82 -78 81 -58 116 l17 29 70 -61 c38 -34 73 -69 78 -79z m1519
137 c0 -7 -30 -13 -34 -7 -3 4 4 9 15 9 10 1 19 0 19 -2z m50 -10 c7 -9 19
-14 26 -11 8 3 11 0 7 -10 -6 -16 -23 -19 -23 -4 0 6 -7 10 -16 10 -8 0 -13 4
-9 9 3 5 -3 12 -12 14 -15 4 -15 5 -2 6 9 0 22 -6 29 -14z m-1963 -21 c11 -10
13 -21 7 -34 -11 -23 -112 -130 -123 -130 -8 0 -27 -85 -23 -102 1 -5 -2 -8
-8 -8 -5 0 -10 17 -11 38 0 20 -2 55 -4 77 -4 39 -2 42 67 108 40 37 74 67 76
67 2 0 10 -7 19 -16z m1823 1 c0 -8 -4 -15 -10 -15 -5 0 -7 7 -4 15 4 8 8 15
10 15 2 0 4 -7 4 -15z m-3970 -5 c0 -5 -4 -10 -10 -10 -5 0 -10 5 -10 10 0 6
5 10 10 10 6 0 10 -4 10 -10z m4031 -23 c-10 -9 -11 -8 -5 6 3 10 9 15 12 12
3 -3 0 -11 -7 -18z m-3870 -4 c13 -16 12 -17 -3 -4 -10 7 -18 15 -18 17 0 8 8
3 21 -13z m3932 -18 c-3 -9 -8 -14 -10 -11 -3 3 -2 9 2 15 9 16 15 13 8 -4z
m197 11 c0 -3 -4 -8 -10 -11 -5 -3 -10 -1 -10 4 0 6 5 11 10 11 6 0 10 -2 10
-4z m-895 -16 c3 -5 1 -10 -4 -10 -6 0 -11 5 -11 10 0 6 2 10 4 10 3 0 8 -4
11 -10z m788 -16 c8 -9 -15 -44 -30 -44 -21 0 -25 21 -7 35 21 16 28 18 37 9z
m67 -13 c0 -15 -38 -56 -45 -49 -9 9 21 58 35 58 6 0 10 -4 10 -9z m264 -22
c-8 -14 -24 -10 -24 6 0 9 6 12 15 9 8 -4 12 -10 9 -15z m-37 -5 c2 -7 -10
-22 -27 -34 -28 -20 -30 -20 -30 -3 0 11 -4 24 -10 31 -7 9 -7 9 2 2 17 -14
28 -12 28 6 0 18 31 16 37 -2z m-139 -82 c34 9 47 -7 24 -30 -20 -20 -20 -20
-47 3 -18 14 -25 26 -20 34 6 11 9 11 15 1 4 -7 17 -11 28 -8z m256 -6 c-2
-14 1 -28 6 -31 7 -4 8 -11 1 -18 -5 -7 -10 -16 -10 -22 -1 -5 -7 -10 -13 -10
-14 0 -15 17 -3 54 5 16 4 21 -4 17 -15 -10 -14 7 1 22 19 19 27 14 22 -12z
m-4374 -22 c-26 -31 -50 -37 -71 -18 -19 17 -19 19 -2 25 10 4 33 8 52 8 29 1
32 -1 21 -15z m1527 10 c-3 -3 -12 -4 -19 -1 -8 3 -5 6 6 6 11 1 17 -2 13 -5z
m223 -31 c0 -20 -3 -24 -11 -16 -7 7 -9 19 -6 27 10 24 17 19 17 -11z m2650
17 c0 -5 -2 -10 -4 -10 -3 0 -8 5 -11 10 -3 6 -1 10 4 10 6 0 11 -4 11 -10z
m14 -21 c-9 -11 -19 -17 -21 -15 -8 7 21 45 30 39 4 -3 1 -14 -9 -24z m-2694
-8 c0 -25 -5 -30 -36 -36 -41 -7 -50 -2 -59 38 -7 27 -7 27 44 27 50 0 51 -1
51 -29z m743 12 c-5 -16 -4 -16 9 1 18 23 52 17 56 -11 2 -15 8 -19 23 -16 22
6 25 -9 5 -26 -11 -9 -20 -9 -35 -2 -27 15 -30 14 -41 -11 -6 -17 -9 -19 -9
-6 -1 10 -12 20 -26 24 -29 7 -34 38 -7 53 25 15 32 13 25 -6z m-924 -7 c23
-28 21 -54 -5 -60 -14 -4 -29 -4 -34 -1 -14 9 -12 62 3 68 20 9 24 8 36 -7z
m65 -8 c18 -25 13 -38 -14 -38 -19 0 -36 32 -25 50 10 16 23 12 39 -12z m1032
12 c8 0 13 -3 13 -7 -3 -21 2 -33 16 -33 19 0 19 -7 1 -26 -22 -21 -41 -19
-95 13 -2 2 4 12 13 22 10 11 15 25 10 32 -5 9 -2 10 10 6 10 -4 24 -7 32 -7z
m-1220 -32 c29 -28 30 -36 4 -58 -17 -15 -19 -22 -10 -46 8 -21 13 -25 19 -15
5 8 14 10 21 6 17 -11 80 4 80 19 0 8 7 16 15 20 9 3 15 0 15 -9 0 -18 42 -20
73 -3 12 6 46 10 76 9 58 -2 71 6 71 47 0 12 4 22 10 22 5 0 7 -7 4 -15 -4 -8
-1 -15 5 -15 6 0 8 -6 5 -13 -2 -7 4 -13 16 -14 11 -1 20 4 20 10 0 8 3 7 9
-2 6 -10 23 -12 60 -9 l52 5 -3 -66 -3 -66 -32 -3 c-24 -2 -33 1 -38 17 -5 18
-15 21 -61 21 -135 0 -383 -42 -572 -96 -358 -103 -821 -364 -1078 -607 -40
-37 -74 -63 -76 -57 -3 10 -33 -25 -163 -190 -85 -107 -96 -119 -60 -60 41 65
99 142 125 165 12 11 48 54 80 95 32 41 68 84 81 96 13 12 33 33 43 48 18 25
76 64 76 51 0 -3 -41 -45 -92 -94 -51 -50 -90 -92 -87 -95 3 -3 61 50 130 118
68 68 135 128 147 135 12 6 22 17 22 24 0 7 21 25 48 42 26 16 70 47 97 67 28
21 54 38 58 38 5 0 27 13 50 28 44 30 337 178 397 201 159 61 209 78 295 100
39 10 40 11 38 52 -1 44 -19 65 -40 47 -17 -14 -27 -4 -19 17 7 20 39 32 44
17 7 -23 19 -12 14 13 -5 31 3 32 34 3z m-1546 -21 c0 -14 -20 -37 -32 -37
-12 0 -10 24 4 38 16 16 28 15 28 -1z m1594 -2 c-4 -8 -8 -15 -10 -15 -2 0 -4
7 -4 15 0 8 4 15 10 15 5 0 7 -7 4 -15z m2786 1 c0 -3 -4 -8 -10 -11 -5 -3
-10 -1 -10 4 0 6 5 11 10 11 6 0 10 -2 10 -4z m55 -7 c4 -6 -1 -16 -11 -24
-16 -12 -20 -11 -26 3 -4 9 -7 20 -7 25 -1 11 37 8 44 -4z m-3034 -46 c6 -21
16 -44 22 -51 12 -15 9 -19 -27 -28 -28 -7 -29 -6 -24 25 4 24 1 31 -9 27 -8
-3 -18 5 -25 20 -10 21 -9 27 3 35 29 18 47 9 60 -28z m-1476 17 c3 -5 1 -10
-4 -10 -6 0 -11 5 -11 10 0 6 2 10 4 10 3 0 8 -4 11 -10z m1324 -62 c26 -58
29 -82 11 -85 -9 -2 -26 17 -44 49 -27 49 -27 52 -10 65 10 7 19 13 21 13 1 0
11 -19 22 -42z m51 27 c7 -8 8 -15 2 -15 -5 0 -15 7 -22 15 -7 8 -8 15 -2 15
5 0 15 -7 22 -15z m321 -8 c-10 -9 -11 -8 -5 6 3 10 9 15 12 12 3 -3 0 -11 -7
-18z m1567 0 l23 -13 -22 -20 c-11 -10 -30 -37 -41 -58 -19 -36 -22 -38 -33
-22 -11 14 -11 24 0 54 8 20 16 45 19 55 6 20 22 21 54 4z m1478 -36 c-10 -11
-24 -17 -32 -14 -12 4 -11 10 3 34 15 25 19 27 32 14 13 -13 13 -17 -3 -34z
m-3466 -36 c17 -25 26 -45 20 -45 -5 0 -10 4 -10 9 0 5 -15 26 -34 45 -18 20
-27 36 -20 36 7 0 27 -20 44 -45z m2127 13 c9 -7 1 -23 -29 -61 -48 -61 -58
-67 -58 -33 0 51 41 122 64 109 6 -3 16 -10 23 -15z m-3483 3 c4 -5 -11 -23
-32 -40 l-39 -30 -12 25 c-15 34 -14 36 10 22 18 -11 23 -10 37 9 19 24 28 28
36 14z m1268 -44 c18 -41 19 -50 7 -58 -22 -14 -27 -11 -44 20 -8 16 -22 37
-32 46 -16 16 -16 18 2 32 30 21 45 12 67 -40z m3484 31 c4 -6 0 -14 -7 -19
-20 -13 -26 -11 -31 9 -6 20 27 29 38 10z m-2603 -118 c-6 -112 -5 -120 13
-120 12 0 15 -3 8 -10 -6 -6 -62 -15 -125 -21 -345 -31 -712 -162 -1029 -366
-333 -215 -644 -535 -816 -841 -59 -105 -70 -119 -33 -42 41 84 160 266 233
355 79 96 244 263 346 349 232 195 500 349 780 447 74 27 130 48 124 48 -13 1
-245 -77 -337 -113 -38 -14 -65 -21 -62 -15 4 6 17 15 29 20 19 8 19 9 1 6
-19 -2 -30 3 -58 29 -6 6 -21 9 -32 7 -11 -2 -14 -1 -7 3 6 3 12 9 12 13 0 10
-42 8 -59 -3 -10 -6 -16 -5 -19 2 -2 7 -11 12 -21 12 -9 0 -22 5 -29 12 -7 7
-12 8 -12 2 0 -5 -12 -10 -26 -10 l-26 -2 24 16 c13 9 26 16 31 14 4 -1 7 2 7
7 0 16 286 150 415 194 156 53 271 81 425 101 152 21 169 23 212 25 l36 1 -5
-120z m1457 62 c18 -17 18 -19 -25 -67 -34 -39 -46 -47 -56 -38 -9 9 -6 24 16
67 16 31 32 56 37 56 5 0 17 -8 28 -18z m-2481 -42 c30 -49 30 -50 10 -61 -11
-6 -21 -9 -22 -7 -1 2 -17 22 -36 46 -31 41 -32 44 -15 57 27 21 29 20 63 -35z
m1108 -27 c-2 -16 -4 -5 -4 22 0 28 2 40 4 28 2 -13 2 -35 0 -50z m2712 46
c18 -6 31 -18 31 -27 -1 -15 -2 -15 -14 0 -7 10 -16 15 -19 12 -3 -4 -13 1
-22 10 -19 19 -18 19 24 5z m-5131 -59 c3 -7 10 -6 23 6 10 9 19 13 19 7 0 -5
-9 -18 -20 -28 -20 -19 -22 -18 -58 18 l-37 38 35 -15 c19 -8 36 -19 38 -26z
m5077 2 c-8 -8 -25 10 -19 20 4 6 9 5 15 -3 4 -7 6 -15 4 -17z m-40 -2 c10
-11 14 -20 8 -20 -5 0 -18 9 -28 20 -10 11 -14 20 -8 20 5 0 18 -9 28 -20z
m-3862 -30 c39 -55 16 -86 -28 -37 -38 42 -47 56 -40 67 13 21 41 9 68 -30z
m1244 -47 c-3 -10 -5 -2 -5 17 0 19 2 27 5 18 2 -10 2 -26 0 -35z m1624 17
c18 -10 17 -14 -22 -60 -23 -28 -46 -50 -51 -50 -22 0 -17 33 12 74 34 51 33
50 61 36z m1239 -14 c0 -14 -41 -36 -66 -36 -21 0 -4 28 27 44 27 14 39 12 39
-8z m-4237 -36 c26 -37 27 -39 9 -49 -16 -9 -24 -4 -51 29 -37 46 -39 60 -8
60 14 0 32 -14 50 -40z m4111 -11 c-3 -5 3 -9 12 -9 13 0 15 -3 7 -11 -7 -7
-18 -3 -36 15 -15 15 -21 27 -14 29 15 6 38 -13 31 -24z m-5244 3 c0 -5 -9
-17 -19 -26 -21 -19 -37 -7 -27 19 6 16 46 21 46 7z m4255 -18 c22 -14 23 -16
7 -32 -9 -10 -29 -33 -45 -51 -23 -27 -30 -31 -42 -21 -21 17 -19 25 15 63 17
19 30 40 30 46 0 15 6 14 35 -5z m-3225 -88 c0 -34 -25 -28 -63 14 -36 42 -37
45 -20 58 16 11 22 9 51 -22 17 -20 32 -42 32 -50z m-917 15 c61 -67 70 -101
27 -101 -34 0 -98 95 -86 127 8 21 21 15 59 -26z m5134 -89 c41 -50 72 -96 68
-101 -3 -5 -1 -12 5 -16 5 -3 10 -11 10 -16 0 -6 -4 -7 -10 -4 -5 3 -10 -2
-10 -11 0 -14 -3 -15 -12 -6 -19 19 -32 14 -17 -5 13 -16 12 -17 -4 -4 -11 9
-15 21 -12 35 5 16 4 18 -4 7 -8 -12 -23 -1 -77 58 -47 50 -70 69 -77 62 -19
-19 -47 -13 -47 10 0 26 16 57 48 91 25 27 26 27 45 10 11 -9 53 -59 94 -110z
m208 103 c0 -13 -7 -22 -17 -22 -17 -2 -26 26 -13 39 13 12 30 3 30 -17z
m-1106 -87 c-69 -63 -92 -48 -36 26 31 41 33 43 55 28 l23 -15 -42 -39z m1029
34 c3 -17 -2 -22 -17 -22 -22 0 -25 8 -15 35 9 22 28 14 32 -13z m-5491 2 c9
-23 -13 -40 -32 -24 -8 7 -15 19 -15 26 0 19 39 18 47 -2z m1010 -33 c18 -26
20 -37 12 -48 -10 -11 -8 -12 7 -7 17 5 17 4 -1 -7 -11 -7 -33 -21 -50 -31
l-30 -20 29 27 29 26 -42 43 c-23 23 -38 46 -34 50 17 16 58 0 80 -33z m3603
-56 c18 -19 20 -25 8 -25 -9 0 -21 -7 -28 -15 -11 -14 -47 -12 -73 2 -8 5 51
62 64 63 3 0 16 -11 29 -25z m1040 5 c10 -18 9 -19 -15 -8 -27 12 -33 28 -10
28 8 0 19 -9 25 -20z m-4774 -18 c6 -13 16 -28 22 -34 12 -12 5 -38 -11 -38
-5 0 -25 16 -44 35 -29 30 -33 38 -22 51 17 20 41 14 55 -14z m4702 -20 c2 -7
-3 -12 -12 -12 -9 0 -16 7 -16 16 0 17 22 14 28 -4z m-5678 -15 c0 -8 -3 -17
-7 -20 -9 -9 -34 13 -27 24 8 14 34 11 34 -4z m859 -46 c8 -14 6 -22 -8 -35
-16 -15 -19 -14 -42 10 -20 21 -21 27 -9 34 24 15 49 11 59 -9z m4695 -29 c3
-5 -1 -9 -9 -9 -8 0 -12 4 -9 9 3 4 7 8 9 8 2 0 6 -4 9 -8z m-5630 -44 c-6 -9
-34 1 -34 12 0 5 6 10 13 13 13 4 28 -13 21 -25z m956 28 c0 -2 -7 -9 -15 -16
-12 -10 -15 -10 -15 4 0 9 7 16 15 16 8 0 15 -2 15 -4z m4875 -6 c4 -6 1 -17
-5 -26 -10 -11 -16 -12 -26 -3 -16 13 -19 33 -4 24 6 -3 10 -1 10 4 0 14 17
14 25 1z m-234 -17 c13 -16 12 -17 -3 -4 -10 7 -18 15 -18 17 0 8 8 3 21 -13z
m-4784 -30 c-3 -32 -16 -38 -42 -19 -16 12 -17 16 -6 30 22 27 50 20 48 -11z
m4021 -40 c5 -10 7 -24 5 -30 -3 -7 0 -13 5 -13 5 0 22 -19 38 -42 16 -24 33
-46 39 -50 6 -5 6 -8 -2 -8 -7 0 -17 8 -22 18 -6 9 -11 13 -11 7 0 -5 -16 14
-36 43 -22 31 -44 52 -55 52 -22 0 -24 6 -6 25 17 19 35 18 45 -2z m1156 -24
c-5 -9 -34 -13 -34 -5 0 2 3 12 6 20 5 13 9 14 20 5 8 -6 11 -15 8 -20z
m-1094 11 c0 -5 -2 -10 -4 -10 -3 0 -8 5 -11 10 -3 6 -1 10 4 10 6 0 11 -4 11
-10z m-4159 -72 c-11 -11 -14 -11 -18 0 -3 7 -11 19 -20 27 -8 8 -11 20 -7 26
4 7 15 2 32 -15 22 -21 24 -28 13 -38z m-826 39 c8 -9 10 -19 5 -28 -10 -16
-15 -12 -24 19 -8 25 -1 28 19 9z m5995 4 c0 -13 -29 -35 -37 -28 -7 8 15 37
28 37 5 0 9 -4 9 -9z m-1085 -21 c10 -11 16 -20 13 -20 -3 0 -13 9 -23 20 -10
11 -16 20 -13 20 3 0 13 -9 23 -20z m383 -17 c5 -17 -48 -37 -61 -24 -13 13
13 41 37 38 11 -1 21 -8 24 -14z m-4582 -14 c3 -6 1 -21 -6 -34 l-12 -23 -21
21 c-19 19 -19 20 -2 34 23 16 32 16 41 2z m134 -58 c0 -28 -17 -35 -29 -13
-11 21 -6 32 16 32 7 0 13 -9 13 -19z m4587 2 c7 -10 18 -27 25 -38 11 -20 11
-20 -11 0 -25 22 -46 55 -35 55 4 0 13 -8 21 -17z m751 0 c2 -8 -5 -13 -17
-13 -21 0 -35 13 -24 24 10 10 36 3 41 -11z m-5322 -40 c-72 -108 -150 -211
-142 -189 7 21 159 235 164 231 2 -2 -8 -20 -22 -42z m-250 -12 c-4 -6 -21
-11 -38 -11 l-31 0 23 25 c21 22 26 23 38 11 8 -8 11 -19 8 -25z m5479 20
c-16 -14 -55 -23 -55 -13 0 12 17 20 45 21 11 1 15 -3 10 -8z m-6178 -21 c2
-19 -8 -26 -20 -14 -7 7 2 34 12 34 4 0 7 -9 8 -20z m2808 6 c135 -24 290 -67
319 -89 13 -11 13 -18 0 -67 -7 -30 -14 -70 -14 -90 0 -40 -13 -66 -28 -56 -6
3 -13 2 -17 -4 -10 -17 -51 -11 -143 19 -375 127 -810 54 -1153 -194 -120 -87
-166 -129 -250 -230 -91 -110 -122 -159 -172 -267 -146 -311 -190 -678 -122
-1028 8 -41 18 -104 23 -140 11 -75 38 -152 93 -265 21 -45 39 -86 39 -93 0
-7 4 -12 9 -12 9 0 19 -17 63 -102 10 -21 23 -38 28 -38 6 0 10 -6 10 -12 0
-25 199 -220 295 -289 46 -34 69 -47 135 -81 14 -7 28 -16 31 -21 5 -7 56 -28
144 -59 17 -6 35 -14 40 -18 6 -4 60 -20 120 -35 127 -31 285 -40 435 -24 121
12 168 23 310 70 63 22 118 39 122 39 8 0 4 -58 -8 -127 -6 -31 -28 -45 -36
-22 -2 6 -23 3 -58 -10 -163 -59 -349 -86 -530 -78 -376 18 -694 162 -980 447
-162 161 -289 378 -355 609 -58 202 -69 287 -69 546 0 253 13 370 59 530 15
50 28 97 30 105 3 15 11 35 65 155 43 96 133 240 187 302 15 17 35 39 44 50
66 75 171 160 308 250 23 14 41 32 41 39 0 15 39 63 40 48 0 -6 -7 -17 -15
-24 -40 -33 0 -26 45 8 2 1 -2 7 -10 13 -13 8 -13 11 2 19 9 6 24 17 32 25 8
8 24 15 35 15 24 0 27 10 9 28 -9 9 -9 12 -1 12 7 0 15 -4 18 -10 3 -5 12 -10
18 -9 9 0 9 2 0 6 -19 7 -16 21 7 28 28 9 25 28 -2 20 -22 -7 -22 -6 -3 7 45
32 196 82 310 102 107 19 396 20 500 2z m2577 -18 c17 3 19 -1 14 -25 -4 -23
2 -36 34 -72 35 -39 42 -42 57 -30 15 12 15 10 -1 -8 -18 -22 -15 -60 4 -48 5
3 10 2 10 -4 0 -17 -18 -22 -24 -6 -3 8 -15 15 -26 15 -13 0 -18 4 -15 11 4 6
-3 21 -16 35 -13 14 -17 24 -10 24 10 0 9 3 -1 14 -7 7 -20 24 -28 36 -8 13
-25 35 -37 50 -29 35 -30 49 -2 24 12 -10 30 -18 41 -16z m-4777 -49 c0 -28
-4 -32 -32 -35 -40 -5 -41 2 -6 38 34 36 39 35 38 -3z m134 15 c6 4 11 0 11
-8 0 -22 9 -20 37 6 25 23 44 18 23 -7 -7 -9 -10 -18 -7 -21 6 -7 -24 -44 -35
-44 -5 0 -13 11 -18 25 -6 15 -17 25 -30 25 -11 0 -20 6 -20 13 0 20 12 29 21
16 4 -6 12 -8 18 -5z m4611 -46 c0 -18 -2 -20 -9 -8 -6 8 -7 18 -5 22 9 14 14
9 14 -14z m221 2 c-22 -19 -41 -26 -41 -15 0 5 51 34 60 34 3 0 -6 -9 -19 -19z
m749 5 c0 -8 5 -15 10 -15 6 0 10 -5 10 -11 0 -6 -5 -9 -12 -7 -14 5 -31 48
-18 48 6 0 10 -7 10 -15z m-6393 -48 c13 5 14 3 3 -17 -11 -20 -14 -21 -27 -7
-9 9 -12 20 -7 28 5 9 9 10 11 2 3 -7 11 -9 20 -6z m5696 -6 c-2 -6 2 -11 7
-11 6 0 10 -7 10 -15 0 -25 -15 -17 -27 16 -9 23 -9 29 0 26 7 -3 11 -10 10
-16z m637 10 c0 -11 -50 -24 -58 -16 -8 8 19 25 41 25 9 0 17 -4 17 -9z
m-5721 -14 c8 -10 7 -19 -3 -32 -12 -16 -16 -17 -30 -6 -12 10 -13 18 -5 32
12 22 22 24 38 6z m172 -59 c-8 -40 -41 -52 -41 -16 0 26 17 48 36 48 8 0 9
-11 5 -32z m-101 12 c0 -5 -4 -10 -10 -10 -5 0 -10 5 -10 10 0 6 5 10 10 10 6
0 10 -4 10 -10z m-135 -20 c3 -5 1 -10 -4 -10 -6 0 -11 5 -11 10 0 6 2 10 4
10 3 0 8 -4 11 -10z m315 6 c0 -2 -8 -10 -17 -17 -16 -13 -17 -12 -4 4 13 16
21 21 21 13z m5610 -60 c0 -6 -7 -1 -15 10 -8 10 -14 26 -14 34 0 16 28 -28
29 -44z m-5590 40 c0 -2 -8 -10 -17 -17 -16 -13 -17 -12 -4 4 13 16 21 21 21
13z m-344 -33 c-7 -7 -26 7 -26 19 0 6 6 6 15 -2 9 -7 13 -15 11 -17z m4929
17 c3 -5 1 -10 -4 -10 -6 0 -11 5 -11 10 0 6 2 10 4 10 3 0 8 -4 11 -10z m149
-6 c19 -18 20 -30 5 -39 -11 -7 -60 40 -51 49 10 11 30 6 46 -10z m-4794 -13
c-5 -11 -15 -23 -21 -27 -6 -3 -3 5 6 20 20 30 30 35 15 7z m-892 -47 c-13
-13 -16 -13 -28 0 -10 13 -10 19 0 31 11 13 14 13 27 -1 14 -14 14 -17 1 -30z
m5856 20 c5 -13 2 -15 -16 -10 -13 3 -27 6 -31 6 -5 0 -5 5 -2 10 10 16 42 12
49 -6z m620 2 c-6 -15 -42 -28 -56 -20 -14 9 -9 22 10 27 36 10 51 7 46 -7z
m-5876 -19 c28 -30 18 -41 -19 -21 -29 14 -35 25 -22 37 11 11 18 8 41 -16z
m213 -95 c-132 -263 -240 -567 -291 -822 -27 -136 -28 -140 -23 -86 14 159 93
436 185 651 64 148 165 355 173 355 3 0 -17 -44 -44 -98z m-53 51 c-21 -34
-22 -35 -31 -15 -12 26 6 52 34 52 17 0 17 -2 -3 -37z m4912 27 c0 -5 -2 -10
-4 -10 -3 0 -8 5 -11 10 -3 6 -1 10 4 10 6 0 11 -4 11 -10z m195 1 c3 -5 1
-12 -5 -16 -5 -3 -10 1 -10 9 0 18 6 21 15 7z m-237 -60 c3 -8 -1 -12 -9 -9
-7 2 -15 10 -17 17 -3 8 1 12 9 9 7 -2 15 -10 17 -17z m111 -16 l20 -35 -21 4
c-27 4 -43 28 -35 50 9 22 12 21 36 -19z m-5913 -6 c19 -22 19 -22 -3 -10 -13
6 -23 16 -23 21 0 15 5 12 26 -11z m6787 2 c-2 -6 2 -11 9 -11 6 0 9 -3 6 -6
-10 -9 -49 16 -42 27 8 13 30 5 27 -10z m-6086 -36 c15 -33 4 -38 -27 -13 -20
16 -21 21 -9 29 20 13 23 12 36 -16z m-597 -24 c0 -6 -7 -11 -15 -11 -9 0 -15
10 -15 26 0 23 2 24 15 10 8 -8 15 -19 15 -25z m5996 28 c10 -17 -17 -29 -37
-16 -10 6 -15 15 -13 19 8 12 42 10 50 -3z m624 -5 c0 -4 -8 -12 -17 -19 -18
-13 -53 -9 -53 7 0 5 4 7 8 4 4 -2 14 -1 22 5 17 10 40 12 40 3z m-750 -14 c0
-5 -4 -10 -10 -10 -5 0 -10 5 -10 10 0 6 5 10 10 10 6 0 10 -4 10 -10z m-5094
-13 c7 -6 -33 -47 -45 -47 -11 0 -16 42 -5 53 6 5 43 1 50 -6z m-126 -17 c0
-5 -2 -10 -4 -10 -3 0 -8 5 -11 10 -3 6 -1 10 4 10 6 0 11 -4 11 -10z m5350
-20 c0 -5 -4 -10 -10 -10 -5 0 -10 5 -10 10 0 6 5 10 10 10 6 0 10 -4 10 -10z
m770 -30 c0 -5 -9 -14 -20 -20 -23 -12 -26 -6 -7 15 14 17 27 19 27 5z m-894
-17 c7 -10 14 -24 14 -30 0 -15 -36 -17 -45 -3 -3 5 -12 7 -19 4 -7 -3 -16 2
-20 12 -5 13 -4 14 7 6 10 -8 16 -6 25 9 15 24 21 24 38 2z m-6060 -19 c-4 -9
-9 -15 -11 -12 -3 3 -3 13 1 22 4 9 9 15 11 12 3 -3 3 -13 -1 -22z m1357 -9
c-3 -9 -8 -14 -10 -11 -3 3 -2 9 2 15 9 16 15 13 8 -4z m4622 5 c3 -5 2 -10
-4 -10 -5 0 -13 5 -16 10 -3 6 -2 10 4 10 5 0 13 -4 16 -10z m-5257 -24 c30
-33 9 -45 -23 -14 -14 13 -25 26 -25 31 0 15 26 6 48 -17z m5520 7 c2 -8 -5
-13 -17 -13 -12 0 -21 6 -21 16 0 18 31 15 38 -3z m-622 -74 c19 -39 34 -73
32 -75 -2 -2 -21 30 -41 71 -20 41 -35 75 -32 75 3 0 21 -32 41 -71z m1210 56
c-25 -19 -36 -19 -36 0 0 10 10 15 28 15 26 -1 26 -1 8 -15z m-6696 -10 c0 -8
-7 -15 -15 -15 -8 0 -15 7 -15 15 0 8 7 15 15 15 8 0 15 -7 15 -15z m760 3
c-1 -31 -18 -42 -44 -30 -35 16 -33 30 7 35 17 2 33 5 35 5 1 1 2 -4 2 -10z
m443 -3 c-3 -9 -8 -14 -10 -11 -3 3 -2 9 2 15 9 16 15 13 8 -4z m-43 -84 c-28
-56 -35 -52 -8 4 12 24 23 43 26 41 2 -2 -6 -22 -18 -45z m4809 4 l20 -35 -34
0 c-19 0 -35 5 -35 10 0 6 5 10 10 10 6 0 10 11 10 25 0 33 4 32 29 -10z
m-5748 -92 c-33 -117 -72 -285 -92 -401 -7 -39 -14 -70 -17 -68 -14 14 61 362
114 531 31 96 27 51 -5 -62z m895 70 c-8 -15 -15 -25 -16 -21 0 12 23 58 27
54 3 -2 -2 -17 -11 -33z m1926 26 c65 -13 108 -28 215 -71 l82 -34 -46 -58
c-56 -71 -79 -81 -136 -60 -93 33 -136 44 -237 60 -263 39 -528 -36 -689 -197
-50 -50 -141 -169 -164 -214 -24 -48 -57 -154 -72 -235 -17 -88 -20 -310 -4
-396 31 -175 131 -368 244 -471 122 -112 156 -132 315 -183 218 -71 364 -63
618 33 30 11 59 28 65 38 10 17 15 14 54 -29 39 -43 41 -48 26 -64 -21 -23
-163 -91 -233 -111 -111 -32 -219 -41 -351 -28 -121 11 -195 25 -234 41 -11 5
-45 19 -75 31 -30 13 -57 25 -60 28 -3 4 -38 29 -79 56 -90 60 -193 161 -245
238 -53 80 -122 247 -143 347 -25 119 -25 419 1 540 20 96 76 245 115 305 69
108 166 203 270 267 20 12 45 30 55 40 11 10 24 18 28 18 5 0 28 9 50 20 23
11 50 20 59 20 10 0 21 5 24 10 3 6 16 10 29 10 12 0 26 4 32 10 21 21 351 49
338 28 -3 -5 10 -8 29 -8 50 0 137 -18 175 -36 18 -8 47 -16 63 -16 17 -1 33
-7 36 -15 3 -7 13 -13 24 -13 10 0 24 -9 32 -20 14 -20 47 -19 47 0 0 16 -22
22 -31 9 -5 -8 -9 -11 -9 -6 0 16 -6 22 -40 40 -41 22 -194 67 -227 67 -13 0
-23 5 -23 10 0 13 7 13 72 -1z m-3257 -19 c3 -6 -1 -7 -9 -4 -18 7 -21 14 -7
14 6 0 13 -4 16 -10z m7105 0 c0 -5 -7 -10 -15 -10 -8 0 -15 5 -15 10 0 6 7
10 15 10 8 0 15 -4 15 -10z m-6331 -58 l26 -23 -47 22 c-47 22 -61 43 -35 52
6 2 16 -3 21 -12 4 -9 20 -26 35 -39z m6286 38 c3 -5 1 -10 -4 -10 -6 0 -11 5
-11 10 0 6 2 10 4 10 3 0 8 -4 11 -10z m-7045 -16 c0 -2 -7 -4 -15 -4 -8 0
-15 4 -15 10 0 5 7 7 15 4 8 -4 15 -8 15 -10z m6354 8 c2 -4 1 -14 -3 -20 -10
-16 -41 -5 -41 14 0 15 35 20 44 6z m-6199 -27 c0 -31 -32 -31 -37 0 -5 22 -2
26 16 23 13 -2 21 -10 21 -23z m6520 -96 c37 -137 73 -341 78 -444 2 -49 3
-76 1 -60 -33 249 -61 402 -95 520 -30 105 -32 113 -20 94 6 -10 22 -59 36
-110z m276 101 c-12 -11 -28 -17 -34 -13 -12 8 20 33 42 33 12 -1 10 -6 -8
-20z m-6056 -16 c0 -10 -8 -20 -18 -22 -22 -4 -35 27 -16 39 20 12 34 5 34
-17z m420 -20 c-8 -20 -15 -39 -15 -42 0 -3 -2 -3 -5 0 -6 5 22 78 30 78 3 0
-2 -16 -10 -36z m4445 -19 c0 -5 -5 -3 -10 5 -5 8 -10 20 -10 25 0 6 5 3 10
-5 5 -8 10 -19 10 -25z m20 -50 c0 -5 -5 -3 -10 5 -5 8 -10 20 -10 25 0 6 5 3
10 -5 5 -8 10 -19 10 -25z m-4921 -24 c-10 -33 -17 -41 -36 -41 -29 0 -30 18
-1 22 15 2 24 13 30 37 5 18 11 31 14 28 3 -3 0 -23 -7 -46z m5361 34 c16 -19
5 -34 -20 -28 -24 6 -34 19 -25 33 9 14 31 12 45 -5z m-5523 -40 c49 -30 42
-51 -7 -23 -22 13 -40 29 -40 36 0 15 2 15 47 -13z m-733 0 c-4 -8 -8 -15 -10
-15 -2 0 -4 7 -4 15 0 8 4 15 10 15 5 0 7 -7 4 -15z m6444 -2 c2 -8 -6 -13
-22 -13 -17 0 -26 5 -26 16 0 19 41 16 48 -3z m702 -3 c0 -5 -7 -10 -15 -10
-8 0 -15 5 -15 10 0 6 7 10 15 10 8 0 15 -4 15 -10z m-7002 -37 c4 -27 -10
-30 -32 -7 -23 22 -20 36 7 32 14 -2 23 -11 25 -25z m6902 10 c-14 -3 -31 -10
-38 -15 -15 -13 -27 -4 -17 11 3 6 23 10 43 10 28 -1 31 -3 12 -6z m-5753 -35
c-3 -8 -6 -5 -6 6 -1 11 2 17 5 13 3 -3 4 -12 1 -19z m-420 -30 c-3 -8 -6 -5
-6 6 -1 11 2 17 5 13 3 -3 4 -12 1 -19z m-197 -22 c0 -8 12 -24 27 -35 28 -23
26 -39 -4 -22 -40 23 -53 39 -47 55 8 20 24 21 24 2z m5631 -7 l20 -20 -38 3
c-27 2 -39 8 -41 21 -5 24 33 22 59 -4z m161 -31 c-17 -8 -26 -8 -34 0 -9 9
-4 12 23 11 32 0 33 -1 11 -11z m-5612 -7 c0 -5 -7 -14 -15 -21 -12 -10 -18
-10 -30 0 -8 7 -12 16 -9 21 7 12 54 12 54 0z m-900 -16 c10 -12 10 -15 -3
-15 -8 0 -20 7 -27 15 -10 12 -10 15 3 15 8 0 20 -7 27 -15z m7120 -15 c0 -5
-10 -10 -22 -10 -19 0 -20 2 -8 10 19 13 30 13 30 0z m107 4 c-3 -3 -12 -4
-19 -1 -8 3 -5 6 6 6 11 1 17 -2 13 -5z m-7067 -16 c0 -14 -20 -48 -20 -35 0
4 1 9 3 12 1 2 -7 11 -18 19 -19 15 -19 15 8 16 15 0 27 -5 27 -12z m-150 -8
c0 -5 -4 -10 -9 -10 -6 0 -13 5 -16 10 -3 6 1 10 9 10 9 0 16 -4 16 -10z
m1260 -86 c-11 -45 -18 -62 -16 -39 5 50 29 141 33 128 2 -5 -6 -45 -17 -89z
m-409 -37 c-8 -8 -14 -8 -21 -1 -8 8 -5 20 7 42 l18 32 3 -31 c2 -17 -1 -36
-7 -42z m5515 58 c14 -13 12 -15 -15 -15 -30 0 -46 11 -34 24 11 11 34 7 49
-9z m159 -5 c-3 -5 -10 -10 -16 -10 -5 0 -9 5 -9 10 0 6 7 10 16 10 8 0 12 -4
9 -10z m-5822 -20 c23 -27 -2 -27 -34 0 -23 18 -23 19 -4 20 11 0 28 -9 38
-20z m5827 -10 c0 -12 -8 -12 -35 0 -18 8 -17 9 8 9 15 1 27 -3 27 -9z m-6576
-55 c3 -9 0 -15 -8 -15 -8 0 -16 7 -20 15 -3 9 0 15 8 15 8 0 16 -7 20 -15z
m4889 8 c-7 -2 -21 -2 -30 0 -10 3 -4 5 12 5 17 0 24 -2 18 -5z m-4725 -20 c5
-18 -19 -16 -43 3 -19 15 -19 15 9 12 16 -2 31 -9 34 -15z m259 -55 c-2 -13
-4 -5 -4 17 -1 22 1 32 4 23 2 -10 2 -28 0 -40z m295 -6 c-7 -20 -30 -44 -97
-103 -27 -24 -41 -32 -29 -19 11 14 28 38 38 53 9 15 28 33 42 39 25 12 33 37
12 39 -10 0 -10 2 -1 5 7 3 9 13 6 22 -6 15 -4 15 15 -1 13 -12 18 -25 14 -35z
m5871 26 c4 -12 2 -28 -4 -34 -8 -10 1 -19 37 -36 27 -13 63 -42 83 -68 l35
-45 -39 36 c-56 52 -137 90 -204 96 -63 6 -111 22 -111 39 0 17 41 10 52 -9 7
-13 23 -17 64 -17 33 0 53 4 49 10 -6 10 15 50 26 50 4 0 9 -10 12 -22z
m-5712 -69 c-7 -17 -10 -19 -10 -6 -1 14 -10 17 -51 17 -54 0 -71 19 -17 21
17 1 43 4 57 8 29 8 35 -4 21 -40z m46 -21 c-3 -7 -5 -2 -5 12 0 14 2 19 5 13
2 -7 2 -19 0 -25z m-510 -45 c-2 -16 -4 -5 -4 22 0 28 2 40 4 28 2 -13 2 -35
0 -50z m840 20 c-3 -10 -5 -4 -5 12 0 17 2 24 5 18 2 -7 2 -21 0 -30z m5630
-70 c-2 -16 -4 -3 -4 27 0 30 2 43 4 28 2 -16 2 -40 0 -55z m-6738 25 c0 -28
-2 -30 -9 -13 -12 28 -12 45 0 45 6 0 10 -15 9 -32z m6279 -14 c5 3 12 -1 16
-9 4 -11 -2 -15 -19 -15 -19 0 -25 5 -25 23 0 16 3 18 9 8 5 -7 13 -11 19 -7z
m-6021 -41 c-3 -10 -5 -4 -5 12 0 17 2 24 5 18 2 -7 2 -21 0 -30z m458 27 c-3
-5 -15 -10 -26 -10 -11 0 -17 5 -14 10 3 6 15 10 26 10 11 0 17 -4 14 -10z
m6010 -40 c18 -8 17 -9 -7 -9 -16 -1 -28 4 -28 9 0 12 8 12 35 0z m-875 -80
c0 -18 7 -20 68 -22 l67 -2 -85 -6 -85 -6 105 -3 c58 -1 99 -5 93 -8 -8 -2
-13 -22 -13 -44 l0 -39 -101 0 -102 0 5 49 c3 31 0 55 -8 66 -18 24 -9 35 27
35 22 0 29 -5 29 -20z m-5860 -6 c0 -8 -4 -12 -10 -9 -5 3 -10 10 -10 16 0 5
5 9 10 9 6 0 10 -7 10 -16z m1200 6 c0 -10 -32 -30 -49 -30 -8 0 -7 7 1 20 13
20 48 28 48 10z m5578 -26 c36 -25 28 -43 -15 -37 -31 4 -43 0 -66 -21 -30
-28 -47 -27 -47 3 0 21 25 46 60 60 35 14 42 13 68 -5z m-6445 -17 c26 -21 28
-25 19 -57 -6 -19 -11 -26 -11 -16 -2 50 -87 89 -109 50 -5 -9 -12 -12 -15 -7
-3 5 1 19 9 31 20 29 70 29 107 -1z m263 -18 c16 -17 16 -22 4 -29 -8 -6 -24
-10 -35 -11 -11 -1 3 -5 30 -9 32 -5 15 -6 -45 -3 -121 5 -127 8 -132 43 l-5
30 82 0 c70 0 85 -3 101 -21z m6026 -7 c2 -16 2 -34 0 -40 -2 -7 -92 -11 -278
-12 -241 -1 -274 1 -274 15 0 8 7 15 15 15 8 0 15 5 15 10 0 6 12 10 26 10 16
0 23 -4 18 -12 -4 -7 -3 -8 4 -4 22 13 12 26 -20 26 -18 0 -40 5 -48 10 -10 6
79 10 261 10 l277 0 4 -28z m235 -49 c-3 -10 -5 -4 -5 12 0 17 2 24 5 18 2 -7
2 -21 0 -30z m-4897 7 c0 -6 -50 -10 -131 -10 -84 0 -128 4 -124 10 4 6 58 10
131 10 76 0 124 -4 124 -10z m-1730 -60 c10 -5 29 -10 42 -10 20 -1 21 -2 6
-10 -32 -19 -99 30 -98 72 1 7 7 1 16 -14 8 -15 23 -32 34 -38z m6575 10 c-19
-21 -72 -32 -96 -19 -9 5 -19 18 -22 30 l-6 21 23 -21 c30 -28 71 -27 93 3 10
13 20 20 22 14 1 -5 -4 -17 -14 -28z m-6805 4 c0 -8 -5 -12 -10 -9 -6 4 -8 11
-5 16 9 14 15 11 15 -7z m5953 -1 c-24 -2 -62 -2 -85 0 -24 2 -5 4 42 4 47 0
66 -2 43 -4z m-4827 -110 c29 -364 169 -770 369 -1074 192 -291 488 -578 767
-744 77 -46 113 -73 105 -78 -8 -6 -6 -7 6 -3 19 6 69 -13 62 -24 -9 -15 276
-132 425 -173 93 -26 260 -56 358 -63 63 -4 99 -11 113 -23 19 -15 19 -17 3
-40 -15 -22 -21 -23 -83 -16 -493 49 -929 225 -1291 519 -169 138 -378 370
-508 566 -77 115 -197 358 -246 495 -59 169 -105 378 -104 480 0 22 -3 82 -7
133 -7 91 -7 92 -33 93 -19 1 -15 4 13 8 22 4 42 6 43 5 2 -2 6 -29 8 -61z
m4854 49 c21 -6 16 -8 -25 -12 l-50 -5 -6 -75 -6 -75 0 88 0 87 31 0 c17 0 42
-4 56 -8z m620 -50 c0 -15 -56 -88 -85 -110 -15 -12 -42 -22 -59 -22 -27 1
-29 2 -12 11 15 9 16 13 5 20 -10 6 -9 10 6 15 11 4 44 27 73 51 53 42 72 51
72 35z m-6045 -89 c38 -18 46 -33 17 -33 -10 0 -29 11 -42 25 -28 29 -23 31
25 8z m5331 -95 c-30 -225 -121 -510 -242 -749 -233 -465 -637 -853 -1123
-1080 -190 -89 -487 -173 -716 -202 -114 -15 -125 -14 -125 7 0 8 40 16 128
25 159 16 244 32 386 72 525 148 1001 497 1306 959 129 194 244 449 319 705
22 76 61 264 61 296 0 10 3 19 6 19 4 0 3 -24 0 -52z m394 38 c0 -15 -18 -31
-26 -23 -7 7 7 37 17 37 5 0 9 -6 9 -14z m-6003 -43 c-3 -10 -5 -4 -5 12 0 17
2 24 5 18 2 -7 2 -21 0 -30z m34 -228 c34 -240 114 -536 209 -770 48 -120 156
-327 223 -429 33 -50 79 -120 103 -156 24 -36 70 -97 103 -135 33 -39 60 -76
61 -82 2 -84 -265 287 -398 553 -57 114 -137 309 -180 440 -67 201 -137 535
-146 696 -5 91 -4 88 25 -117z m6416 103 c-2 -13 -4 -3 -4 22 0 25 2 35 4 23
2 -13 2 -33 0 -45z m-272 43 c3 -5 1 -12 -5 -16 -5 -3 -10 1 -10 9 0 18 6 21
15 7z m-5878 -7 c-3 -3 -12 -4 -19 -1 -8 3 -5 6 6 6 11 1 17 -2 13 -5z m5677
-28 c-3 -15 -8 -25 -11 -23 -2 3 -1 17 3 31 3 15 8 25 11 23 2 -3 1 -17 -3
-31z m-5487 2 c-3 -8 -6 -5 -6 6 -1 11 2 17 5 13 3 -3 4 -12 1 -19z m-740 -20
c-3 -8 -6 -5 -6 6 -1 11 2 17 5 13 3 -3 4 -12 1 -19z m750 -40 c-3 -7 -5 -2
-5 12 0 14 2 19 5 13 2 -7 2 -19 0 -25z m5938 -53 c-4 -36 -10 -64 -12 -61 -3
2 -2 34 2 71 4 36 10 64 12 61 3 -2 2 -34 -2 -71z m-5978 49 c-3 -3 -12 -4
-19 -1 -8 3 -5 6 6 6 11 1 17 -2 13 -5z m5703 -14 c0 -5 -7 -10 -15 -10 -8 0
-15 5 -15 10 0 6 7 10 15 10 8 0 15 -4 15 -10z m-5845 -31 c12 -19 -3 -22 -27
-5 l-22 16 21 0 c12 0 25 -5 28 -11z m5831 -36 c-11 -11 -19 6 -11 24 8 17 8
17 12 0 3 -10 2 -21 -1 -24z m-236 6 c0 -6 -4 -7 -10 -4 -5 3 -10 11 -10 16 0
6 5 7 10 4 6 -3 10 -11 10 -16z m48 -22 c2 -11 -2 -14 -17 -10 -12 3 -21 11
-21 18 0 19 34 11 38 -8z m459 -64 c-3 -10 -5 -4 -5 12 0 17 2 24 5 18 2 -7 2
-21 0 -30z m-284 -3 c-7 -28 -22 -35 -30 -15 -3 10 0 21 8 26 22 14 28 11 22
-11z m-5778 -10 c-3 -5 -15 -10 -26 -10 -10 0 -19 5 -19 10 0 6 12 10 26 10
14 0 23 -4 19 -10z m6052 -42 c-3 -7 -5 -2 -5 12 0 14 2 19 5 13 2 -7 2 -19 0
-25z m-6056 -21 c-13 -13 -26 -3 -16 12 3 6 11 8 17 5 6 -4 6 -10 -1 -17z
m5543 -3 c4 -11 1 -14 -11 -12 -9 2 -18 9 -21 16 -6 18 25 15 32 -4z m206 -75
c0 -11 -27 -12 -34 0 -3 4 -3 11 0 14 8 8 34 -3 34 -14z m-5710 -4 c-14 -16
-50 -21 -50 -6 0 9 20 17 49 20 11 1 11 -2 1 -14z m0 -45 c0 -5 -4 -10 -10
-10 -5 0 -10 5 -10 10 0 6 5 10 10 10 6 0 10 -4 10 -10z m5675 -39 c-4 -17
-11 -31 -16 -31 -12 0 -11 14 3 45 15 32 22 25 13 -14z m-5757 -321 c16 -41
53 -123 80 -182 28 -60 49 -108 47 -108 -8 0 -71 116 -107 195 -51 114 -137
357 -143 407 -4 27 13 -10 43 -97 27 -77 63 -174 80 -215z m5550 332 c2 -7 -3
-12 -11 -12 -9 0 -18 -13 -22 -31 -4 -17 -9 -28 -12 -26 -2 3 1 24 7 47 10 38
29 49 38 22z m-4173 -12 c10 -11 16 -20 13 -20 -3 0 -13 9 -23 20 -10 11 -16
20 -13 20 3 0 13 -9 23 -20z m-1245 -65 c0 -8 -9 -15 -20 -15 -11 0 -20 7 -20
15 0 8 9 15 20 15 11 0 20 -7 20 -15z m248 -130 c64 -146 167 -335 226 -418
28 -40 57 -84 65 -99 22 -42 124 -165 213 -255 45 -46 75 -83 66 -83 -8 0 -41
28 -74 63 -211 222 -321 385 -469 697 -32 66 -95 226 -94 237 0 9 1 8 67 -142z
m5362 124 c0 -5 -7 -9 -15 -9 -8 0 -15 7 -15 15 0 9 6 12 15 9 8 -4 15 -10 15
-15z m-250 -64 c0 -8 -4 -15 -9 -15 -5 0 -16 -15 -25 -32 -9 -19 -16 -26 -16
-16 0 9 5 20 10 23 6 3 10 17 10 31 0 15 6 24 15 24 8 0 15 -7 15 -15z m220
-4 c0 -6 -5 -13 -10 -16 -6 -4 -8 -11 -5 -16 4 -5 -4 -9 -17 -9 -21 1 -22 2
-5 14 9 7 17 18 17 25 0 6 5 11 10 11 6 0 10 -4 10 -9z m590 -15 c0 -3 -4 -8
-10 -11 -5 -3 -10 -1 -10 4 0 6 5 11 10 11 6 0 10 -2 10 -4z m-6120 -55 c0
-14 -18 -23 -30 -16 -6 4 -8 11 -5 16 8 12 35 12 35 0z m5500 -11 c0 -5 -7
-10 -15 -10 -8 0 -15 5 -15 10 0 6 7 10 15 10 8 0 15 -4 15 -10z m-260 -60 c0
-11 -6 -20 -14 -20 -7 0 -19 -13 -26 -30 -7 -16 -16 -27 -21 -24 -5 3 -1 16 8
29 10 12 25 32 33 44 18 26 20 26 20 1z m220 -34 c0 -7 -11 -16 -25 -18 -31
-6 -33 5 -2 20 12 6 23 11 25 11 1 1 2 -5 2 -13z m300 -33 c-11 -17 -11 -17
-6 0 3 10 6 24 7 30 0 9 2 9 5 0 3 -7 0 -20 -6 -30z m-5697 10 c8 -7 -11 -33
-24 -33 -5 0 -9 9 -9 20 0 19 20 27 33 13z m5117 -43 c0 -5 -4 -10 -10 -10 -5
0 -10 -6 -10 -13 0 -8 -10 -22 -22 -33 -21 -19 -21 -18 2 24 22 40 40 54 40
32z m226 -57 c-10 -10 -19 5 -10 18 6 11 8 11 12 0 2 -7 1 -15 -2 -18z m-26
-19 c0 -3 -6 -12 -14 -19 -17 -17 -30 -7 -15 12 12 13 29 18 29 7z m-5255 -14
c-3 -5 -1 -10 4 -10 6 0 11 -7 11 -15 0 -8 -6 -15 -13 -15 -14 0 -39 35 -30
44 10 10 35 7 28 -4z m4985 -30 c0 -5 -4 -10 -10 -10 -5 0 -10 -6 -10 -14 0
-7 -13 -28 -29 -46 -17 -20 -27 -40 -23 -49 3 -9 2 -13 -3 -9 -4 4 -15 2 -23
-5 -21 -17 -14 -2 38 75 43 64 60 81 60 58z m580 -14 c-15 -40 -90 -186 -95
-186 -3 0 13 36 36 81 22 45 44 92 49 105 5 13 12 24 15 24 2 0 0 -11 -5 -24z
m-6539 -28 c69 -181 185 -407 295 -577 71 -110 85 -141 64 -141 -5 0 -10 4
-10 8 0 5 -21 39 -46 76 -62 93 -151 253 -201 361 -70 153 -121 269 -128 293
-12 40 10 23 26 -20z m6159 -45 c-1 -23 -18 -35 -36 -25 -18 10 -17 11 6 21
32 12 30 12 30 4z m-5106 -35 c-3 -5 -12 -4 -20 3 -7 6 -11 15 -8 21 3 5 12 4
20 -3 7 -6 11 -15 8 -21z m4776 -23 c0 -8 -4 -15 -10 -15 -5 0 -7 7 -4 15 4 8
8 15 10 15 2 0 4 -7 4 -15z m-4755 -5 c-3 -5 -12 -10 -18 -10 -7 0 -6 4 3 10
19 12 23 12 15 0z m285 -11 c0 -6 -4 -7 -10 -4 -5 3 -10 11 -10 16 0 6 5 7 10
4 6 -3 10 -11 10 -16z m4456 -31 c4 -7 3 -8 -4 -4 -7 4 -17 -3 -24 -18 -6 -14
-15 -26 -20 -26 -5 0 -6 -4 -3 -10 3 -5 1 -10 -4 -10 -16 0 -14 10 12 47 24
35 32 39 43 21z m-4672 -62 c9 -14 12 -27 7 -31 -5 -3 -16 8 -24 25 -18 36 -6
40 17 6z m5266 -16 c-11 -22 -23 -40 -25 -40 -3 0 4 18 15 40 11 22 23 40 25
40 3 0 -4 -18 -15 -40z m-370 1 c0 -6 -4 -13 -10 -16 -5 -3 -10 1 -10 9 0 9 5
16 10 16 6 0 10 -4 10 -9z m-337 -66 c-3 -9 -8 -14 -10 -11 -3 3 -2 9 2 15 9
16 15 13 8 -4z m656 -22 c-128 -211 -190 -302 -233 -342 -45 -42 -38 -17 14
48 56 70 149 200 199 279 38 59 55 72 20 15z m657 -64 c-57 -113 -150 -275
-175 -309 -24 -31 -35 -23 -16 10 8 14 20 36 27 50 7 14 34 59 59 100 72 117
127 213 135 233 3 10 9 16 12 13 2 -3 -16 -47 -42 -97z m-1339 59 c-3 -8 -6
-5 -6 6 -1 11 2 17 5 13 3 -3 4 -12 1 -19z m-4432 -28 c15 -17 16 -20 3 -20
-9 0 -18 9 -21 20 -3 11 -4 20 -3 20 2 0 11 -9 21 -20z m4405 0 c0 -5 -5 -10
-11 -10 -5 0 -7 5 -4 10 3 6 8 10 11 10 2 0 4 -4 4 -10z m273 -37 c-8 -12 -19
-20 -24 -17 -14 8 -11 25 8 46 23 26 36 2 16 -29z m-337 -35 c-9 -12 -16 -19
-16 -15 0 11 24 47 28 42 2 -2 -3 -14 -12 -27z m294 -6 c0 -10 -22 -32 -32
-32 -4 0 -8 9 -8 20 0 13 7 20 20 20 11 0 20 -4 20 -8z m-320 -17 c0 -3 -8
-15 -19 -26 -16 -17 -19 -18 -24 -5 -4 10 -1 16 8 16 8 0 15 5 15 10 0 6 5 10
10 10 6 0 10 -2 10 -5z m250 -15 c0 -13 -7 -20 -19 -20 -11 0 -23 -4 -26 -10
-9 -15 -25 -12 -25 4 0 8 9 18 20 21 11 3 20 11 20 16 0 5 7 9 15 9 8 0 15 -9
15 -20z m-4150 -21 c0 -5 -7 -6 -15 -3 -8 4 -15 13 -15 21 0 13 3 13 15 3 8
-7 15 -16 15 -21z m4470 24 c-1 -15 -30 -46 -37 -40 -3 4 2 16 12 27 19 21 25
24 25 13z m-436 -19 c25 -9 19 -24 -9 -24 -24 0 -32 10 -18 23 8 8 8 8 27 1z
m-5244 -25 c0 -6 -4 -7 -10 -4 -5 3 -10 11 -10 16 0 6 5 7 10 4 6 -3 10 -11
10 -16z m18 -44 c-3 -3 -9 2 -12 12 -6 14 -5 15 5 6 7 -7 10 -15 7 -18z m4952
-28 c0 -2 -12 -14 -27 -28 l-28 -24 24 28 c23 25 31 32 31 24z m481 -94 c-25
-47 -305 -289 -456 -396 -87 -61 -339 -208 -310 -180 6 5 55 37 110 71 201
123 438 307 585 456 63 65 90 83 71 49z m-181 -85 c-47 -44 -98 -89 -115 -100
-16 -11 17 25 75 80 58 56 110 101 115 101 6 0 -28 -36 -75 -81z m-4364 -67
c78 -76 178 -167 221 -202 43 -35 80 -66 83 -70 8 -9 227 -159 305 -208 39
-24 72 -48 73 -53 2 -4 11 -8 20 -8 10 0 24 -5 32 -11 25 -18 -41 0 -70 19
-14 9 -31 17 -39 18 -30 5 -280 177 -426 294 -125 100 -333 300 -355 340 -25
47 20 13 156 -119z m4604 107 c0 -23 -262 -270 -385 -364 -166 -126 -371 -258
-539 -348 -343 -184 -765 -307 -1125 -329 -105 -6 -40 10 150 38 385 55 750
186 1089 388 99 59 297 189 355 232 141 104 425 363 425 386 0 5 7 9 15 9 8 0
15 -6 15 -12z m-5330 -71 c0 -16 -20 5 -36 36 l-15 32 25 -30 c14 -16 26 -34
26 -38z m4555 16 c-37 -27 -55 -35 -55 -22 0 6 14 16 30 22 17 6 30 16 30 21
0 5 3 6 7 2 5 -4 -1 -14 -12 -23z m-4686 -105 c106 -137 146 -196 139 -204
-12 -11 -260 305 -251 319 9 15 21 3 112 -115z m762 2 c211 -209 473 -410 722
-554 391 -226 832 -366 1277 -406 155 -14 166 -16 174 -36 6 -16 -4 -16 -111
-10 -501 28 -1078 224 -1510 513 -244 163 -498 374 -638 531 -26 28 -53 52
-61 52 -28 0 -11 26 19 29 4 1 62 -53 128 -119z m4789 105 c0 -8 -4 -15 -10
-15 -5 0 -10 -7 -10 -15 0 -17 -265 -262 -400 -370 -86 -69 -223 -163 -392
-270 -367 -232 -942 -418 -1361 -440 -56 -3 -114 -8 -129 -10 -31 -5 -36 6
-14 28 10 9 50 16 119 21 347 22 765 135 1115 301 186 89 493 280 662 412 66
52 265 232 340 307 67 68 80 77 80 51z m-2390 -10 c0 -13 -13 -15 -77 -13 -50
2 -78 7 -81 16 -3 9 17 12 77 12 66 0 81 -3 81 -15z m2903 0 c-3 -9 -8 -14
-10 -11 -3 3 -2 9 2 15 9 16 15 13 8 -4z m207 -11 c0 -18 -211 -294 -225 -294
-16 0 2 36 51 101 30 41 77 102 102 137 40 53 72 78 72 56z m-3140 -21 c0 -43
-26 -142 -42 -157 -11 -10 -21 -16 -23 -15 -1 2 -7 36 -13 74 -5 39 -12 77
-16 85 -5 12 3 15 44 17 27 1 50 -1 50 -4z m1940 -66 c0 -2 -10 -12 -22 -23
l-23 -19 19 23 c18 21 26 27 26 19z m-620 -47 c-14 -11 -32 -19 -40 -19 -8 0
0 8 18 16 17 9 32 21 32 26 0 6 3 7 7 3 4 -4 -3 -16 -17 -26z m555 -10 c-10
-11 -23 -20 -29 -20 -6 0 0 9 14 20 32 25 38 25 15 0z m-4485 -105 l85 -89
-70 63 c-38 35 -79 78 -89 95 -11 17 -18 29 -15 26 2 -3 43 -45 89 -95z m5210
67 c0 -5 -9 -17 -21 -28 -21 -19 -21 -19 -8 9 12 26 29 37 29 19z m-1410 -26
c0 -2 -7 -7 -16 -10 -8 -3 -12 -2 -9 4 6 10 25 14 25 6z m-85 -41 c-51 -24
-74 -31 -61 -17 10 9 88 41 101 41 6 -1 -12 -11 -40 -24z m645 20 c0 -2 -10
-9 -22 -15 -22 -11 -22 -10 -4 4 21 17 26 19 26 11z m-55 -35 c-3 -5 -16 -15
-28 -21 -19 -9 -19 -8 3 10 28 23 34 26 25 11z m805 -47 c-67 -60 -80 -61 -25
-1 28 30 54 51 59 47 4 -4 -11 -24 -34 -46z m-1535 8 c-11 -10 -117 -43 -122
-37 -4 3 104 43 122 45 6 1 6 -2 0 -8z m-3788 -142 c70 -72 164 -161 208 -197
44 -37 82 -69 85 -72 15 -18 159 -127 241 -182 338 -231 522 -327 900 -473
313 -121 710 -207 1073 -234 70 -6 131 -12 133 -15 3 -2 2 -10 -2 -16 -8 -13
-113 -9 -300 11 -265 28 -602 106 -865 199 -450 161 -920 432 -1240 714 -190
168 -380 362 -380 388 0 21 28 -2 147 -123z m5703 112 c0 -41 -323 -355 -500
-487 -333 -248 -548 -373 -915 -529 -301 -128 -522 -190 -933 -260 -196 -34
-672 -49 -672 -21 0 10 36 14 173 19 324 11 523 36 808 102 439 102 897 298
1254 538 66 45 227 159 235 167 3 3 39 30 80 61 91 68 189 158 335 306 101
103 135 129 135 104z m-2100 -31 c-20 -13 -33 -13 -25 0 3 6 14 10 23 10 15 0
15 -2 2 -10z m1615 -40 c-16 -16 -34 -30 -39 -30 -12 1 49 60 61 60 4 0 -6
-13 -22 -30z m-3148 14 c-3 -3 -12 -4 -19 -1 -8 3 -5 6 6 6 11 1 17 -2 13 -5z
m1419 -3 c-7 -11 -56 -21 -56 -10 0 4 12 10 28 12 15 2 28 5 30 6 2 0 1 -3 -2
-8z m-3326 -21 c7 -13 7 -20 1 -20 -6 0 -15 9 -21 20 -7 13 -7 20 -1 20 6 0
15 -9 21 -20z m220 5 c20 -24 6 -28 -15 -5 -10 11 -13 20 -8 20 6 0 16 -7 23
-15z m1727 9 c-3 -3 -12 -4 -19 -1 -8 3 -5 6 6 6 11 1 17 -2 13 -5z m40 -10
c-3 -3 -12 -4 -19 -1 -8 3 -5 6 6 6 11 1 17 -2 13 -5z m1268 -3 c-14 -14 -103
-27 -90 -13 9 9 34 15 85 21 9 0 10 -2 5 -8z m-1218 -7 c-3 -3 -12 -4 -19 -1
-8 3 -5 6 6 6 11 1 17 -2 13 -5z m83 -14 l25 -8 -25 0 c-14 0 -36 4 -50 8
l-25 8 25 0 c14 0 36 -4 50 -8z m986 -9 c-3 -4 -35 -11 -71 -15 -36 -4 -80 -9
-98 -13 -19 -3 -29 -2 -24 3 5 5 45 14 90 20 111 15 109 15 103 5z m-796 -22
c10 -6 -7 -7 -45 -3 -90 10 -123 25 -40 18 39 -3 77 -10 85 -15z m63 -6 c-7
-2 -21 -2 -30 0 -10 3 -4 5 12 5 17 0 24 -2 18 -5z m65 0 c-10 -2 -26 -2 -35
0 -10 3 -2 5 17 5 19 0 27 -2 18 -5z m322 -9 c0 -2 -9 -4 -20 -4 -11 0 -20 4
-20 9 0 5 9 7 20 4 11 -3 20 -7 20 -9z m90 6 c-36 -11 -52 -11 -45 0 3 6 21
10 38 9 31 -1 31 -1 7 -9z m2280 -40 c0 -5 -5 -10 -11 -10 -5 0 -7 5 -4 10 3
6 8 10 11 10 2 0 4 -4 4 -10z m-4990 -46 c0 -9 -37 15 -51 33 -10 12 -5 11 19
-6 17 -12 32 -24 32 -27z m230 26 c14 -11 21 -20 15 -20 -5 0 -21 9 -35 20
-14 11 -20 20 -15 20 6 0 21 -9 35 -20z m775 -70 c-5 -9 16 -15 38 -11 5 1 6
-3 3 -8 -3 -5 9 -14 27 -21 68 -25 74 -29 42 -26 -44 5 -139 57 -123 67 17 11
20 11 13 -1z m3885 -15 c-7 -8 -17 -15 -22 -15 -6 0 -5 7 2 15 7 8 17 15 22
15 6 0 5 -7 -2 -15z m-245 -5 c-3 -5 -11 -10 -16 -10 -6 0 -7 5 -4 10 3 6 11
10 16 10 6 0 7 -4 4 -10z m-4480 -74 c6 -5 1 -4 -10 2 -11 6 -33 25 -50 44
l-30 33 40 -35 c22 -19 45 -39 50 -44z m230 33 c12 -19 -5 -23 -22 -6 -16 16
-16 17 -1 17 9 0 20 -5 23 -11z m795 -39 c0 -5 -7 -7 -15 -4 -8 4 -15 8 -15
10 0 2 7 4 15 4 8 0 15 -4 15 -10z m1199 -87 c2 -2 0 -3 -6 -3 -13 0 -93 72
-93 84 0 5 21 -11 48 -34 26 -24 49 -45 51 -47z m2391 83 c0 -3 -15 -14 -32
-26 l-33 -22 28 26 c27 25 37 31 37 22z m-3501 -26 c57 -20 74 -30 50 -29 -14
0 -118 47 -109 48 3 1 29 -8 59 -19z m3191 -15 c-7 -8 -17 -15 -23 -15 -5 0
-2 9 8 20 21 23 35 19 15 -5z m-4151 -62 c2 -2 0 -3 -5 -3 -5 0 -22 12 -39 26
l-30 26 35 -23 c19 -12 37 -24 39 -26z m251 14 c0 -4 -9 -3 -20 3 -11 6 -20
15 -20 20 0 6 9 5 20 -2 11 -7 20 -16 20 -21z m855 2 c22 -10 29 -16 16 -13
-37 10 -88 33 -71 33 8 0 33 -9 55 -20z m1135 6 c-7 -9 -15 -13 -17 -11 -7 7
7 26 19 26 6 0 6 -6 -2 -15z m-1046 -34 c3 -4 -6 -6 -19 -3 -14 2 -25 6 -25 8
0 8 39 4 44 -5z m2808 -23 c-7 -7 -12 -8 -12 -2 0 14 12 26 19 19 2 -3 -1 -11
-7 -17z m278 4 c0 -9 -72 -52 -86 -52 -8 0 76 60 84 60 1 0 2 -4 2 -8z m-4174
-44 l19 -21 -27 18 c-29 18 -34 25 -20 25 5 0 17 -10 28 -22z m324 -8 c13 -8
13 -10 -2 -10 -9 0 -20 5 -23 10 -8 13 5 13 25 0z m1067 -6 c75 -17 339 -54
391 -54 17 0 32 -5 32 -11 0 -15 -155 -5 -272 17 -89 17 -217 50 -226 59 -8 8
1 6 75 -11z m701 0 c30 -21 28 -36 -3 -22 -19 8 -31 8 -50 0 -35 -16 -56 -15
-49 2 6 15 41 34 64 35 9 1 26 -6 38 -15z m1662 -24 c0 -5 -4 -10 -10 -10 -5
0 -10 5 -10 10 0 6 5 10 10 10 6 0 10 -4 10 -10z m265 -20 c-4 -6 -25 -20 -47
-31 -22 -11 -37 -16 -33 -10 3 6 23 20 43 31 44 23 45 23 37 10z m-3900 -10
c3 -5 1 -10 -4 -10 -6 0 -11 5 -11 10 0 6 2 10 4 10 3 0 8 -4 11 -10z m1954
-34 c-10 -10 -59 -17 -59 -9 0 15 44 32 54 22 5 -5 8 -11 5 -13z m-1804 -59
c6 -6 -12 2 -40 18 -27 15 -54 32 -60 38 -5 6 13 -2 40 -18 28 -15 55 -32 60
-38z m230 54 c10 -17 -12 -21 -25 -6 -10 12 -10 15 3 15 9 0 18 -4 22 -9z
m3090 -21 c-3 -5 -11 -10 -16 -10 -6 0 -7 5 -4 10 3 6 11 10 16 10 6 0 7 -4 4
-10z m255 -35 c-33 -19 -50 -18 -26 0 11 8 27 15 35 15 10 -1 7 -6 -9 -15z
m-1733 -20 c-32 -28 -83 -33 -113 -10 -17 13 -15 13 17 3 31 -9 43 -8 75 9 52
27 54 27 21 -2z m-1437 -5 c0 -5 -7 -10 -15 -10 -8 0 -15 5 -15 10 0 6 7 10
15 10 8 0 15 -4 15 -10z m2750 -10 c0 -5 -5 -10 -11 -10 -5 0 -7 5 -4 10 3 6
8 10 11 10 2 0 4 -4 4 -10z m300 -23 c-46 -23 -80 -37 -80 -32 0 8 74 44 90
44 8 1 4 -5 -10 -12z m-3290 -23 c0 -2 -9 0 -20 6 -11 6 -20 13 -20 16 0 2 9
0 20 -6 11 -6 20 -13 20 -16z m420 -14 c0 -5 -4 -10 -9 -10 -6 0 -13 5 -16 10
-3 6 1 10 9 10 9 0 16 -4 16 -10z m2395 -10 c-3 -5 -11 -10 -16 -10 -6 0 -7 5
-4 10 3 6 11 10 16 10 6 0 7 -4 4 -10z m324 -23 c-11 -9 -128 -57 -135 -56 -5
0 23 16 61 34 39 18 72 31 74 29 2 -2 2 -5 0 -7z m-2989 -17 c8 -5 11 -10 5
-10 -5 0 -17 5 -25 10 -8 5 -10 10 -5 10 6 0 17 -5 25 -10z m2765 -75 c-16 -8
-37 -14 -45 -14 -8 0 -1 7 15 14 17 8 37 14 45 14 8 0 2 -7 -15 -14z m-2510
-25 c3 -6 -1 -7 -9 -4 -18 7 -21 14 -7 14 6 0 13 -4 16 -10z m2375 -22 c-35
-15 -123 -38 -128 -34 -4 5 118 44 138 44 8 1 4 -4 -10 -10z m-2205 -29 l20
-8 -20 0 c-11 0 -36 7 -55 15 l-35 14 35 -6 c19 -4 44 -10 55 -15z m1968 -36
c-7 -2 -19 -2 -25 0 -7 3 -2 5 12 5 14 0 19 -2 13 -5z m-1711 -26 c65 -14 94
-33 33 -21 -51 9 -125 32 -105 32 8 1 41 -5 72 -11z m1638 9 c0 -7 -139 -38
-152 -33 -7 2 16 11 52 20 66 16 100 20 100 13z m-1417 -53 c-13 -2 -33 -2
-45 0 -13 2 -3 4 22 4 25 0 35 -2 23 -4z m1087 -9 c-69 -14 -107 -17 -98 -9 8
9 89 23 128 23 25 0 17 -4 -30 -14z m-905 -14 c7 -12 -22 -12 -50 0 -17 7 -15
9 12 9 17 1 35 -3 38 -9z m700 -10 c-3 -5 -25 -10 -48 -9 -36 1 -38 2 -17 9
36 12 72 12 65 0z m-492 -7 c-18 -2 -48 -2 -65 0 -18 2 -4 4 32 4 36 0 50 -2
33 -4z m270 -10 c-18 -2 -48 -2 -65 0 -18 2 -4 4 32 4 36 0 50 -2 33 -4z"/>
<path d="M4711 8784 c0 -11 3 -14 6 -6 3 7 2 16 -1 19 -3 4 -6 -2 -5 -13z"/>
<path d="M4248 8713 c7 -3 16 -2 19 1 4 3 -2 6 -13 5 -11 0 -14 -3 -6 -6z"/>
<path d="M4275 8675 c0 -19 5 -25 23 -25 25 0 27 7 8 33 -19 24 -31 21 -31 -8z"/>
<path d="M4277 8624 c-4 -4 -4 -10 -1 -15 6 -10 34 0 34 12 0 10 -24 12 -33 3z"/>
<path d="M4306 8582 c-3 -6 2 -16 13 -21 25 -14 31 -14 31 1 0 6 -3 8 -7 5 -3
-4 -11 1 -18 10 -8 11 -14 12 -19 5z"/>
<path d="M4230 8542 c0 -4 9 -8 20 -9 11 -1 20 2 20 8 0 5 -9 9 -20 9 -11 0
-20 -4 -20 -8z"/>
<path d="M6000 8674 c0 -8 5 -12 10 -9 6 4 8 11 5 16 -9 14 -15 11 -15 -7z"/>
<path d="M6046 8655 c4 -8 12 -15 20 -15 8 0 11 6 8 15 -4 8 -12 15 -20 15 -8
0 -11 -6 -8 -15z"/>
<path d="M5936 8625 c-3 -8 -1 -15 4 -15 6 0 10 7 10 15 0 8 -2 15 -4 15 -2 0
-6 -7 -10 -15z"/>
<path d="M6105 8630 c3 -5 15 -10 26 -10 10 0 19 5 19 10 0 6 -12 10 -26 10
-14 0 -23 -4 -19 -10z"/>
<path d="M6280 8610 c0 -5 5 -10 11 -10 5 0 7 5 4 10 -3 6 -8 10 -11 10 -2 0
-4 -4 -4 -10z"/>
<path d="M6316 8517 c3 -10 9 -15 12 -12 3 3 0 11 -7 18 -10 9 -11 8 -5 -6z"/>
<path d="M6341 8464 c0 -11 3 -14 6 -6 3 7 2 16 -1 19 -3 4 -6 -2 -5 -13z"/>
<path d="M6525 8490 c4 -6 11 -8 16 -5 14 9 11 15 -7 15 -8 0 -12 -5 -9 -10z"/>
<path d="M6510 8466 c12 -5 33 -5 52 1 31 9 30 9 -20 9 -39 -1 -47 -3 -32 -10z"/>
<path d="M6592 8446 c10 -7 15 -16 11 -19 -3 -4 5 -7 20 -7 14 0 34 -3 44 -7
12 -4 9 2 -10 20 -16 16 -39 27 -55 27 -24 -1 -25 -2 -10 -14z"/>
<path d="M6605 8400 c3 -5 1 -10 -4 -10 -6 0 -11 -4 -11 -10 0 -5 9 -10 20
-10 13 0 20 7 20 20 0 11 -7 20 -16 20 -8 0 -12 -4 -9 -10z"/>
<path d="M5070 8350 c-23 -23 -26 -58 -6 -85 12 -17 13 -16 20 11 10 37 24 54
47 54 21 0 28 -10 31 -43 3 -34 18 -24 18 11 0 65 -66 96 -110 52z"/>
<path d="M5500 6913 c-14 -2 -36 -8 -50 -14 l-25 -9 2 -883 c1 -485 2 -1250 3
-1699 l0 -817 30 -16 c22 -11 54 -15 120 -13 78 3 90 5 98 23 5 11 8 322 6
700 -1 378 2 696 7 716 5 20 15 42 23 48 28 24 129 30 465 32 272 0 353 -2
370 -13 47 -29 51 -63 52 -451 0 -199 4 -382 7 -407 l7 -45 105 1 c114 1 131
4 142 19 9 12 11 2770 2 2801 -5 21 -12 22 -111 23 -58 1 -109 3 -112 6 -12 7
-34 -13 -38 -32 -2 -10 -3 -322 -3 -693 0 -727 2 -703 -53 -744 -27 -20 -42
-21 -354 -24 -334 -3 -449 5 -469 33 -6 8 -16 15 -23 15 -8 0 -11 124 -12 463
-2 781 -4 965 -9 970 -7 6 -150 14 -180 10z"/>
<path d="M3865 7419 c-10 -15 3 -25 16 -12 7 7 7 13 1 17 -6 3 -14 1 -17 -5z"/>
<path d="M3900 7400 c0 -5 5 -10 10 -10 6 0 10 5 10 10 0 6 -4 10 -10 10 -5 0
-10 -4 -10 -10z"/>
<path d="M4065 7350 c-16 -7 -17 -9 -3 -9 9 -1 20 4 23 9 7 11 7 11 -20 0z"/>
<path d="M4278 6713 c7 -3 16 -2 19 1 4 3 -2 6 -13 5 -11 0 -14 -3 -6 -6z"/>
<path d="M4216 6701 c-3 -4 6 -6 19 -3 14 2 25 6 25 8 0 8 -39 4 -44 -5z"/>
<path d="M4145 6680 c-22 -11 -32 -18 -22 -15 11 3 30 8 43 11 13 3 24 10 24
15 0 11 2 12 -45 -11z"/>
<path d="M4018 6643 c-10 -2 -18 -9 -18 -15 0 -5 7 -7 16 -4 9 3 20 6 25 6 5
0 9 5 9 10 0 10 -3 11 -32 3z"/>
<path d="M3963 6615 c-19 -21 -16 -27 7 -13 11 7 20 16 20 20 0 12 -14 9 -27
-7z"/>
</g>
</svg>
